<svg width="363" height="241" viewBox="0 0 363 241" fill="none" xmlns="http://www.w3.org/2000/svg">
<g filter="url(#filter0_dd)">
<rect x="10" width="303" height="181" rx="24" fill="white"/>
</g>
<mask id="mask0" mask-type="alpha" maskUnits="userSpaceOnUse" x="10" y="0" width="303" height="181">
<rect x="10" width="303" height="181" rx="24" fill="white"/>
</mask>
<g mask="url(#mask0)">
<path d="M41.596 139.2H42.632V149H41.596V139.2ZM49.6126 141.58C50.5366 141.58 51.2693 141.851 51.8106 142.392C52.3613 142.924 52.6366 143.703 52.6366 144.73V149H51.6426V144.828C51.6426 144.063 51.4513 143.479 51.0686 143.078C50.6859 142.677 50.1399 142.476 49.4306 142.476C48.6373 142.476 48.0073 142.714 47.5406 143.19C47.0833 143.657 46.8546 144.305 46.8546 145.136V149H45.8606V141.636H46.8126V142.994C47.0833 142.546 47.4566 142.201 47.9326 141.958C48.4179 141.706 48.9779 141.58 49.6126 141.58ZM61.6365 141.636L58.3605 149H57.3385L54.0765 141.636H55.1125L57.8705 147.908L60.6565 141.636H61.6365ZM69.4933 145.626H63.3333C63.3893 146.391 63.6833 147.012 64.2153 147.488C64.7473 147.955 65.4193 148.188 66.2313 148.188C66.6886 148.188 67.1086 148.109 67.4913 147.95C67.874 147.782 68.2053 147.539 68.4853 147.222L69.0453 147.866C68.7186 148.258 68.308 148.557 67.8133 148.762C67.328 148.967 66.7913 149.07 66.2033 149.07C65.4473 149.07 64.7753 148.911 64.1873 148.594C63.6086 148.267 63.156 147.819 62.8293 147.25C62.5026 146.681 62.3393 146.037 62.3393 145.318C62.3393 144.599 62.4933 143.955 62.8013 143.386C63.1186 142.817 63.548 142.373 64.0893 142.056C64.64 141.739 65.256 141.58 65.9373 141.58C66.6186 141.58 67.23 141.739 67.7713 142.056C68.3126 142.373 68.7373 142.817 69.0453 143.386C69.3533 143.946 69.5073 144.59 69.5073 145.318L69.4933 145.626ZM65.9373 142.434C65.228 142.434 64.6306 142.663 64.1453 143.12C63.6693 143.568 63.3986 144.156 63.3333 144.884H68.5553C68.49 144.156 68.2146 143.568 67.7293 143.12C67.2533 142.663 66.656 142.434 65.9373 142.434ZM73.7545 149.07C73.1572 149.07 72.5832 148.986 72.0325 148.818C71.4912 148.641 71.0665 148.421 70.7585 148.16L71.2065 147.376C71.5145 147.619 71.9019 147.819 72.3685 147.978C72.8352 148.127 73.3205 148.202 73.8245 148.202C74.4965 148.202 74.9912 148.099 75.3085 147.894C75.6352 147.679 75.7985 147.381 75.7985 146.998C75.7985 146.727 75.7099 146.517 75.5325 146.368C75.3552 146.209 75.1312 146.093 74.8605 146.018C74.5899 145.934 74.2305 145.855 73.7825 145.78C73.1852 145.668 72.7045 145.556 72.3405 145.444C71.9765 145.323 71.6639 145.122 71.4025 144.842C71.1505 144.562 71.0245 144.175 71.0245 143.68C71.0245 143.064 71.2812 142.56 71.7945 142.168C72.3079 141.776 73.0219 141.58 73.9365 141.58C74.4125 141.58 74.8885 141.645 75.3645 141.776C75.8405 141.897 76.2325 142.061 76.5405 142.266L76.1065 143.064C75.4999 142.644 74.7765 142.434 73.9365 142.434C73.3019 142.434 72.8212 142.546 72.4945 142.77C72.1772 142.994 72.0185 143.288 72.0185 143.652C72.0185 143.932 72.1072 144.156 72.2845 144.324C72.4712 144.492 72.6999 144.618 72.9705 144.702C73.2412 144.777 73.6145 144.856 74.0905 144.94C74.6785 145.052 75.1499 145.164 75.5045 145.276C75.8592 145.388 76.1625 145.579 76.4145 145.85C76.6665 146.121 76.7925 146.494 76.7925 146.97C76.7925 147.614 76.5219 148.127 75.9805 148.51C75.4485 148.883 74.7065 149.07 73.7545 149.07ZM82.7581 148.552C82.5715 148.72 82.3381 148.851 82.0581 148.944C81.7875 149.028 81.5028 149.07 81.2041 149.07C80.5135 149.07 79.9815 148.883 79.6081 148.51C79.2348 148.137 79.0481 147.609 79.0481 146.928V142.476H77.7321V141.636H79.0481V140.026H80.0421V141.636H82.2821V142.476H80.0421V146.872C80.0421 147.311 80.1495 147.647 80.3641 147.88C80.5881 148.104 80.9055 148.216 81.3161 148.216C81.5215 148.216 81.7175 148.183 81.9041 148.118C82.1001 148.053 82.2681 147.959 82.4081 147.838L82.7581 148.552ZM94.0016 141.58C94.9256 141.58 95.649 141.846 96.1716 142.378C96.7036 142.91 96.9696 143.694 96.9696 144.73V149H95.9756V144.828C95.9756 144.063 95.789 143.479 95.4156 143.078C95.0516 142.677 94.5336 142.476 93.8616 142.476C93.0963 142.476 92.4943 142.714 92.0556 143.19C91.617 143.657 91.3976 144.305 91.3976 145.136V149H90.4036V144.828C90.4036 144.063 90.217 143.479 89.8436 143.078C89.4796 142.677 88.957 142.476 88.2756 142.476C87.5196 142.476 86.9176 142.714 86.4696 143.19C86.031 143.657 85.8116 144.305 85.8116 145.136V149H84.8176V141.636H85.7696V142.98C86.031 142.532 86.395 142.187 86.8616 141.944C87.3283 141.701 87.865 141.58 88.4716 141.58C89.0876 141.58 89.6196 141.711 90.0676 141.972C90.525 142.233 90.8656 142.621 91.0896 143.134C91.3603 142.649 91.7476 142.271 92.2516 142C92.765 141.72 93.3483 141.58 94.0016 141.58ZM106.355 145.626H100.195C100.251 146.391 100.545 147.012 101.077 147.488C101.609 147.955 102.281 148.188 103.093 148.188C103.55 148.188 103.97 148.109 104.353 147.95C104.735 147.782 105.067 147.539 105.347 147.222L105.907 147.866C105.58 148.258 105.169 148.557 104.675 148.762C104.189 148.967 103.653 149.07 103.065 149.07C102.309 149.07 101.637 148.911 101.049 148.594C100.47 148.267 100.017 147.819 99.6906 147.25C99.364 146.681 99.2006 146.037 99.2006 145.318C99.2006 144.599 99.3546 143.955 99.6626 143.386C99.98 142.817 100.409 142.373 100.951 142.056C101.501 141.739 102.117 141.58 102.799 141.58C103.48 141.58 104.091 141.739 104.633 142.056C105.174 142.373 105.599 142.817 105.907 143.386C106.215 143.946 106.369 144.59 106.369 145.318L106.355 145.626ZM102.799 142.434C102.089 142.434 101.492 142.663 101.007 143.12C100.531 143.568 100.26 144.156 100.195 144.884H105.417C105.351 144.156 105.076 143.568 104.591 143.12C104.115 142.663 103.517 142.434 102.799 142.434ZM112.394 141.58C113.318 141.58 114.051 141.851 114.592 142.392C115.143 142.924 115.418 143.703 115.418 144.73V149H114.424V144.828C114.424 144.063 114.233 143.479 113.85 143.078C113.467 142.677 112.921 142.476 112.212 142.476C111.419 142.476 110.789 142.714 110.322 143.19C109.865 143.657 109.636 144.305 109.636 145.136V149H108.642V141.636H109.594V142.994C109.865 142.546 110.238 142.201 110.714 141.958C111.199 141.706 111.759 141.58 112.394 141.58ZM122.244 148.552C122.058 148.72 121.824 148.851 121.544 148.944C121.274 149.028 120.989 149.07 120.69 149.07C120 149.07 119.468 148.883 119.094 148.51C118.721 148.137 118.534 147.609 118.534 146.928V142.476H117.218V141.636H118.534V140.026H119.528V141.636H121.768V142.476H119.528V146.872C119.528 147.311 119.636 147.647 119.85 147.88C120.074 148.104 120.392 148.216 120.802 148.216C121.008 148.216 121.204 148.183 121.39 148.118C121.586 148.053 121.754 147.959 121.894 147.838L122.244 148.552ZM135.036 141.636V148.104C135.036 149.355 134.728 150.279 134.112 150.876C133.505 151.483 132.586 151.786 131.354 151.786C130.673 151.786 130.024 151.683 129.408 151.478C128.801 151.282 128.307 151.007 127.924 150.652L128.428 149.896C128.783 150.213 129.212 150.461 129.716 150.638C130.229 150.815 130.766 150.904 131.326 150.904C132.259 150.904 132.945 150.685 133.384 150.246C133.823 149.817 134.042 149.145 134.042 148.23V147.292C133.734 147.759 133.328 148.113 132.824 148.356C132.329 148.599 131.779 148.72 131.172 148.72C130.481 148.72 129.851 148.571 129.282 148.272C128.722 147.964 128.279 147.539 127.952 146.998C127.635 146.447 127.476 145.827 127.476 145.136C127.476 144.445 127.635 143.829 127.952 143.288C128.279 142.747 128.722 142.327 129.282 142.028C129.842 141.729 130.472 141.58 131.172 141.58C131.797 141.58 132.362 141.706 132.866 141.958C133.37 142.21 133.776 142.574 134.084 143.05V141.636H135.036ZM131.27 147.838C131.802 147.838 132.283 147.726 132.712 147.502C133.141 147.269 133.473 146.947 133.706 146.536C133.949 146.125 134.07 145.659 134.07 145.136C134.07 144.613 133.949 144.151 133.706 143.75C133.473 143.339 133.141 143.022 132.712 142.798C132.292 142.565 131.811 142.448 131.27 142.448C130.738 142.448 130.257 142.56 129.828 142.784C129.408 143.008 129.077 143.325 128.834 143.736C128.601 144.147 128.484 144.613 128.484 145.136C128.484 145.659 128.601 146.125 128.834 146.536C129.077 146.947 129.408 147.269 129.828 147.502C130.257 147.726 130.738 147.838 131.27 147.838ZM139.018 143.078C139.251 142.583 139.596 142.21 140.054 141.958C140.52 141.706 141.094 141.58 141.776 141.58V142.546L141.538 142.532C140.763 142.532 140.156 142.77 139.718 143.246C139.279 143.722 139.06 144.389 139.06 145.248V149H138.066V141.636H139.018V143.078ZM146.767 149.07C146.058 149.07 145.418 148.911 144.849 148.594C144.28 148.267 143.832 147.819 143.505 147.25C143.178 146.681 143.015 146.037 143.015 145.318C143.015 144.599 143.178 143.955 143.505 143.386C143.832 142.817 144.28 142.373 144.849 142.056C145.418 141.739 146.058 141.58 146.767 141.58C147.476 141.58 148.116 141.739 148.685 142.056C149.254 142.373 149.698 142.817 150.015 143.386C150.342 143.955 150.505 144.599 150.505 145.318C150.505 146.037 150.342 146.681 150.015 147.25C149.698 147.819 149.254 148.267 148.685 148.594C148.116 148.911 147.476 149.07 146.767 149.07ZM146.767 148.188C147.29 148.188 147.756 148.071 148.167 147.838C148.587 147.595 148.914 147.255 149.147 146.816C149.38 146.377 149.497 145.878 149.497 145.318C149.497 144.758 149.38 144.259 149.147 143.82C148.914 143.381 148.587 143.045 148.167 142.812C147.756 142.569 147.29 142.448 146.767 142.448C146.244 142.448 145.773 142.569 145.353 142.812C144.942 143.045 144.616 143.381 144.373 143.82C144.14 144.259 144.023 144.758 144.023 145.318C144.023 145.878 144.14 146.377 144.373 146.816C144.616 147.255 144.942 147.595 145.353 147.838C145.773 148.071 146.244 148.188 146.767 148.188ZM163.387 141.636L160.601 149H159.663L157.339 142.966L155.015 149H154.077L151.305 141.636H152.257L154.567 147.894L156.933 141.636H157.787L160.139 147.894L162.477 141.636H163.387ZM169.217 148.552C169.03 148.72 168.797 148.851 168.517 148.944C168.246 149.028 167.962 149.07 167.663 149.07C166.972 149.07 166.44 148.883 166.067 148.51C165.694 148.137 165.507 147.609 165.507 146.928V142.476H164.191V141.636H165.507V140.026H166.501V141.636H168.741V142.476H166.501V146.872C166.501 147.311 166.608 147.647 166.823 147.88C167.047 148.104 167.364 148.216 167.775 148.216C167.98 148.216 168.176 148.183 168.363 148.118C168.559 148.053 168.727 147.959 168.867 147.838L169.217 148.552ZM175.029 141.58C175.953 141.58 176.685 141.851 177.227 142.392C177.777 142.924 178.053 143.703 178.053 144.73V149H177.059V144.828C177.059 144.063 176.867 143.479 176.485 143.078C176.102 142.677 175.556 142.476 174.847 142.476C174.053 142.476 173.423 142.714 172.957 143.19C172.499 143.657 172.271 144.305 172.271 145.136V149H171.277V138.612H172.271V142.924C172.541 142.495 172.915 142.163 173.391 141.93C173.867 141.697 174.413 141.58 175.029 141.58Z" fill="#AFAFBD"/>
</g>
<path fill-rule="evenodd" clip-rule="evenodd" d="M42.0928 63.1555C42.0928 63.1555 57.3081 74.7881 67.9249 72.5319C78.5417 70.2757 86.3764 56.5964 96.7542 56.5964C107.132 56.5964 116.317 59.9609 129.259 52.4902C142.202 45.0195 144.34 34.751 159.918 34.751C175.497 34.751 195.525 56.8001 216.426 39.9421C237.327 23.0841 281.207 53.8247 281.207 53.8247V120.643H42.0928V63.1555Z" fill="url(#paint0_linear)"/>
<path d="M42.0928 63.0411C42.0928 63.0411 57.3081 74.6737 67.9249 72.4176C78.5417 70.1614 86.3764 56.482 96.7542 56.482C107.132 56.482 116.317 59.8465 129.259 52.3758C142.202 44.9051 144.34 34.6366 159.918 34.6366C175.497 34.6366 195.525 56.6857 216.426 39.8278C237.327 22.9698 281.207 53.7103 281.207 53.7103" stroke="#99BF18" stroke-width="3.47143"/>
<rect x="279.3" y="51.8552" width="3.47" height="3.47143" rx="1.735" fill="#FE805C"/>
<rect x="40.2002" y="61.1746" width="3.47" height="3.47143" rx="1.735" fill="#FE805C"/>
<g filter="url(#filter1_d)">
<rect x="197" y="40" width="12" height="12" rx="6" fill="#99BF18"/>
<rect x="198" y="41" width="10" height="10" rx="5" stroke="white" stroke-width="2"/>
</g>
<path d="M40.192 109.2V111.816H43.744V126H46.864V109.2H40.192ZM61.3426 117.168C62.7106 116.424 63.4786 115.224 63.4786 113.64C63.4786 110.76 60.9346 108.96 57.1906 108.96C53.4706 108.96 50.9506 110.76 50.9506 113.64C50.9506 115.224 51.6946 116.424 53.0386 117.168C51.3106 117.96 50.3506 119.328 50.3506 121.176C50.3506 124.296 53.0146 126.24 57.1906 126.24C61.3666 126.24 64.0786 124.296 64.0786 121.176C64.0786 119.328 63.0946 117.96 61.3426 117.168ZM57.1906 111.408C59.1106 111.408 60.4066 112.272 60.4066 113.784C60.4066 115.224 59.1826 116.136 57.1906 116.136C55.2226 116.136 54.0226 115.224 54.0226 113.784C54.0226 112.272 55.2706 111.408 57.1906 111.408ZM57.1906 123.792C54.8866 123.792 53.4946 122.784 53.4946 121.08C53.4946 119.424 54.8866 118.392 57.1906 118.392C59.4946 118.392 60.9346 119.424 60.9346 121.08C60.9346 122.784 59.4946 123.792 57.1906 123.792ZM68.4833 122.184C67.3793 122.184 66.5393 122.976 66.5393 124.176C66.5393 125.04 66.9953 125.664 67.6673 125.952L66.7073 129.624H68.6513L69.8753 126.24C70.3073 125.136 70.4273 124.704 70.4273 124.176C70.4273 123 69.6113 122.184 68.4833 122.184ZM77.179 123.36L81.667 119.088C83.995 116.904 84.451 115.416 84.451 113.784C84.451 110.808 82.099 108.96 78.451 108.96C75.691 108.96 73.363 109.992 72.067 111.744L74.251 113.424C75.187 112.224 76.555 111.672 78.187 111.672C80.251 111.672 81.307 112.56 81.307 114.096C81.307 115.032 81.019 116.016 79.387 117.576L72.715 123.912V126H85.099V123.36H77.179ZM92.4058 115.704H90.7978L91.1578 111.816H98.3818V109.2H88.5178L87.6538 118.344H91.7098C95.1898 118.344 96.2218 119.352 96.2218 120.96C96.2218 122.544 94.9018 123.528 92.6698 123.528C90.7738 123.528 88.9498 122.88 87.7258 121.872L86.4058 124.296C87.9418 125.52 90.3418 126.24 92.7178 126.24C97.2298 126.24 99.3658 123.792 99.3658 120.84C99.3658 117.864 97.3738 115.704 92.4058 115.704ZM116.391 119.544H113.415V116.16H110.487V119.544H104.991L112.791 109.2H109.455L101.175 120.024V122.184H110.391V126H113.415V122.184H116.391V119.544Z" fill="#12121F"/>
<path d="M235.816 116.24V118H227.56V116.608L232.008 112.384C232.509 111.904 232.845 111.488 233.016 111.136C233.197 110.773 233.288 110.416 233.288 110.064C233.288 109.541 233.112 109.141 232.76 108.864C232.408 108.587 231.891 108.448 231.208 108.448C230.067 108.448 229.192 108.837 228.584 109.616L227.128 108.496C227.565 107.909 228.152 107.456 228.888 107.136C229.635 106.805 230.467 106.64 231.384 106.64C232.6 106.64 233.571 106.928 234.296 107.504C235.021 108.08 235.384 108.864 235.384 109.856C235.384 110.464 235.256 111.035 235 111.568C234.744 112.101 234.253 112.709 233.528 113.392L230.536 116.24H235.816ZM238.671 118.112C238.308 118.112 237.999 117.989 237.743 117.744C237.487 117.488 237.359 117.168 237.359 116.784C237.359 116.389 237.481 116.069 237.727 115.824C237.983 115.579 238.297 115.456 238.671 115.456C239.044 115.456 239.353 115.579 239.599 115.824C239.855 116.069 239.983 116.389 239.983 116.784C239.983 117.168 239.855 117.488 239.599 117.744C239.343 117.989 239.033 118.112 238.671 118.112ZM245.083 111.136C246.662 111.136 247.83 111.445 248.587 112.064C249.344 112.672 249.723 113.504 249.723 114.56C249.723 115.232 249.558 115.84 249.227 116.384C248.896 116.928 248.4 117.36 247.739 117.68C247.078 118 246.262 118.16 245.291 118.16C244.491 118.16 243.718 118.048 242.971 117.824C242.224 117.589 241.595 117.269 241.083 116.864L241.963 115.248C242.379 115.589 242.875 115.861 243.451 116.064C244.038 116.256 244.64 116.352 245.259 116.352C245.995 116.352 246.571 116.203 246.987 115.904C247.414 115.595 247.627 115.173 247.627 114.64C247.627 114.064 247.398 113.632 246.939 113.344C246.491 113.045 245.718 112.896 244.619 112.896H241.915L242.491 106.8H249.067V108.544H244.251L244.011 111.136H245.083ZM253.513 112.832C252.713 112.832 252.067 112.549 251.577 111.984C251.086 111.419 250.84 110.677 250.84 109.76C250.84 108.843 251.086 108.101 251.577 107.536C252.067 106.971 252.713 106.688 253.513 106.688C254.313 106.688 254.958 106.971 255.449 107.536C255.95 108.091 256.201 108.832 256.201 109.76C256.201 110.688 255.95 111.435 255.449 112C254.958 112.555 254.313 112.832 253.513 112.832ZM260.233 106.8H261.801L254.153 118H252.585L260.233 106.8ZM253.513 111.712C253.95 111.712 254.286 111.541 254.521 111.2C254.766 110.859 254.889 110.379 254.889 109.76C254.889 109.141 254.766 108.661 254.521 108.32C254.286 107.979 253.95 107.808 253.513 107.808C253.097 107.808 252.761 107.984 252.505 108.336C252.259 108.677 252.137 109.152 252.137 109.76C252.137 110.368 252.259 110.848 252.505 111.2C252.761 111.541 253.097 111.712 253.513 111.712ZM260.857 118.112C260.057 118.112 259.411 117.829 258.921 117.264C258.43 116.699 258.185 115.957 258.185 115.04C258.185 114.123 258.43 113.381 258.921 112.816C259.411 112.251 260.057 111.968 260.857 111.968C261.657 111.968 262.302 112.251 262.793 112.816C263.294 113.381 263.545 114.123 263.545 115.04C263.545 115.957 263.294 116.699 262.793 117.264C262.302 117.829 261.657 118.112 260.857 118.112ZM260.857 116.992C261.283 116.992 261.619 116.821 261.865 116.48C262.11 116.128 262.233 115.648 262.233 115.04C262.233 114.432 262.11 113.957 261.865 113.616C261.619 113.264 261.283 113.088 260.857 113.088C260.43 113.088 260.094 113.259 259.849 113.6C259.603 113.941 259.481 114.421 259.481 115.04C259.481 115.659 259.603 116.139 259.849 116.48C260.094 116.821 260.43 116.992 260.857 116.992Z" fill="#99BF18"/>
<path fill-rule="evenodd" clip-rule="evenodd" d="M274.996 107C274.811 106.999 274.625 107.075 274.492 107.228L269.832 112.561C269.589 112.839 269.618 113.26 269.895 113.502C270.172 113.744 270.593 113.716 270.836 113.439L274.334 109.435V118.333C274.334 118.702 274.632 119 275 119C275.369 119 275.667 118.702 275.667 118.333V109.447L279.166 113.439C279.408 113.716 279.829 113.744 280.106 113.501C280.383 113.259 280.411 112.838 280.168 112.561L275.552 107.292C275.432 107.116 275.23 107 275 107C274.999 107 274.998 107 274.996 107Z" fill="#99BF18"/>
<defs>
<filter id="filter0_dd" x="0" y="0" width="363" height="241" filterUnits="userSpaceOnUse" color-interpolation-filters="sRGB">
<feFlood flood-opacity="0" result="BackgroundImageFix"/>
<feColorMatrix in="SourceAlpha" type="matrix" values="0 0 0 0 0 0 0 0 0 0 0 0 0 0 0 0 0 0 127 0"/>
<feOffset dx="20" dy="30"/>
<feGaussianBlur stdDeviation="15"/>
<feColorMatrix type="matrix" values="0 0 0 0 0.498039 0 0 0 0 0.631373 0 0 0 0 0.0392157 0 0 0 0.04 0"/>
<feBlend mode="normal" in2="BackgroundImageFix" result="effect1_dropShadow"/>
<feColorMatrix in="SourceAlpha" type="matrix" values="0 0 0 0 0 0 0 0 0 0 0 0 0 0 0 0 0 0 127 0"/>
<feOffset dx="10" dy="20"/>
<feGaussianBlur stdDeviation="10"/>
<feColorMatrix type="matrix" values="0 0 0 0 0.498039 0 0 0 0 0.631373 0 0 0 0 0.0392157 0 0 0 0.04 0"/>
<feBlend mode="normal" in2="effect1_dropShadow" result="effect2_dropShadow"/>
<feBlend mode="normal" in="SourceGraphic" in2="effect2_dropShadow" result="shape"/>
</filter>
<filter id="filter1_d" x="193" y="38" width="20" height="20" filterUnits="userSpaceOnUse" color-interpolation-filters="sRGB">
<feFlood flood-opacity="0" result="BackgroundImageFix"/>
<feColorMatrix in="SourceAlpha" type="matrix" values="0 0 0 0 0 0 0 0 0 0 0 0 0 0 0 0 0 0 127 0"/>
<feOffset dy="2"/>
<feGaussianBlur stdDeviation="2"/>
<feColorMatrix type="matrix" values="0 0 0 0 0.268354 0 0 0 0 0.268354 0 0 0 0 0.31049 0 0 0 0.15 0"/>
<feBlend mode="normal" in2="BackgroundImageFix" result="effect1_dropShadow"/>
<feBlend mode="normal" in="SourceGraphic" in2="effect1_dropShadow" result="shape"/>
</filter>
<linearGradient id="paint0_linear" x1="658.786" y1="79.2073" x2="658.786" y2="-108.891" gradientUnits="userSpaceOnUse">
<stop stop-color="white"/>
<stop offset="1" stop-color="#7FA10A"/>
</linearGradient>
</defs>
</svg>
