<svg width="412" height="191" viewBox="0 0 412 191" fill="none" xmlns="http://www.w3.org/2000/svg">
<g filter="url(#filter0_ddd)">
<rect x="10" width="327" height="106" rx="24" fill="white"/>
</g>
<path d="M128.816 79.78C128.816 80.396 128.58 80.92 128.108 81.352C127.636 81.776 126.944 82.012 126.032 82.06V83.44H125.432V82.072C124.848 82.04 124.296 81.928 123.776 81.736C123.264 81.536 122.86 81.284 122.564 80.98L122.912 80.296C123.192 80.568 123.556 80.796 124.004 80.98C124.46 81.164 124.936 81.272 125.432 81.304V78.148C124.88 78.012 124.42 77.868 124.052 77.716C123.684 77.556 123.376 77.328 123.128 77.032C122.888 76.728 122.768 76.328 122.768 75.832C122.768 75.216 122.992 74.7 123.44 74.284C123.888 73.86 124.552 73.612 125.432 73.54V72.16H126.032V73.528C126.488 73.544 126.928 73.62 127.352 73.756C127.784 73.884 128.156 74.056 128.468 74.272L128.168 74.98C127.84 74.772 127.492 74.608 127.124 74.488C126.756 74.368 126.392 74.3 126.032 74.284V77.464C126.624 77.608 127.108 77.756 127.484 77.908C127.86 78.052 128.176 78.276 128.432 78.58C128.688 78.884 128.816 79.284 128.816 79.78ZM123.644 75.808C123.644 76.224 123.796 76.54 124.1 76.756C124.412 76.972 124.856 77.156 125.432 77.308V74.308C124.84 74.356 124.392 74.52 124.088 74.8C123.792 75.072 123.644 75.408 123.644 75.808ZM126.032 81.304C126.664 81.256 127.14 81.1 127.46 80.836C127.78 80.572 127.94 80.236 127.94 79.828C127.94 79.396 127.776 79.072 127.448 78.856C127.12 78.64 126.648 78.456 126.032 78.304V81.304ZM135.763 73.528C136.875 73.528 137.727 73.896 138.319 74.632C138.911 75.36 139.207 76.392 139.207 77.728C139.207 78.664 139.047 79.456 138.727 80.104C138.407 80.752 137.959 81.244 137.383 81.58C136.807 81.908 136.135 82.072 135.367 82.072C134.535 82.072 133.871 81.92 133.375 81.616L133.723 80.92C134.123 81.184 134.667 81.316 135.355 81.316C136.283 81.316 137.011 81.024 137.539 80.44C138.067 79.848 138.331 78.992 138.331 77.872C138.331 77.664 138.319 77.436 138.295 77.188C138.087 77.644 137.755 78 137.299 78.256C136.843 78.504 136.319 78.628 135.727 78.628C135.175 78.628 134.683 78.524 134.251 78.316C133.827 78.108 133.495 77.816 133.255 77.44C133.015 77.056 132.895 76.612 132.895 76.108C132.895 75.596 133.019 75.144 133.267 74.752C133.515 74.36 133.855 74.06 134.287 73.852C134.727 73.636 135.219 73.528 135.763 73.528ZM135.859 77.896C136.283 77.896 136.655 77.816 136.975 77.656C137.303 77.496 137.559 77.276 137.743 76.996C137.927 76.716 138.019 76.404 138.019 76.06C138.019 75.74 137.931 75.444 137.755 75.172C137.587 74.9 137.335 74.68 136.999 74.512C136.663 74.344 136.263 74.26 135.799 74.26C135.191 74.26 134.695 74.428 134.311 74.764C133.935 75.092 133.747 75.532 133.747 76.084C133.747 76.636 133.935 77.076 134.311 77.404C134.695 77.732 135.211 77.896 135.859 77.896ZM146.173 81.232V82H140.281V81.388L143.773 77.968C144.213 77.536 144.509 77.164 144.661 76.852C144.821 76.532 144.901 76.212 144.901 75.892C144.901 75.396 144.729 75.012 144.385 74.74C144.049 74.46 143.565 74.32 142.933 74.32C141.949 74.32 141.185 74.632 140.641 75.256L140.029 74.728C140.357 74.344 140.773 74.048 141.277 73.84C141.789 73.632 142.365 73.528 143.005 73.528C143.861 73.528 144.537 73.732 145.033 74.14C145.537 74.54 145.789 75.092 145.789 75.796C145.789 76.228 145.693 76.644 145.501 77.044C145.309 77.444 144.945 77.904 144.409 78.424L141.553 81.232H146.173ZM153.138 73.6V74.212L149.622 82H148.686L152.142 74.368H147.822V75.94H146.97V73.6H153.138ZM160.631 79.792H158.951V82H158.087V79.792H153.347V79.168L157.799 73.6H158.759L154.463 79.024H158.111V77.08H158.951V79.024H160.631V79.792Z" fill="#AFAFBD"/>
<path d="M125.045 60.15C124.375 60.15 123.755 60.02 123.185 59.76C122.625 59.49 122.165 59.115 121.805 58.635L122.915 57.3C123.495 58.1 124.19 58.5 125 58.5C126.09 58.5 126.635 57.855 126.635 56.565V51.135H122.9V49.5H128.585V56.46C128.585 57.69 128.285 58.615 127.685 59.235C127.085 59.845 126.205 60.15 125.045 60.15ZM134.74 60.105C133.93 60.105 133.2 59.93 132.55 59.58C131.9 59.23 131.39 58.745 131.02 58.125C130.66 57.495 130.48 56.785 130.48 55.995C130.48 55.205 130.66 54.5 131.02 53.88C131.39 53.26 131.9 52.775 132.55 52.425C133.2 52.075 133.93 51.9 134.74 51.9C135.56 51.9 136.295 52.075 136.945 52.425C137.595 52.775 138.1 53.26 138.46 53.88C138.83 54.5 139.015 55.205 139.015 55.995C139.015 56.785 138.83 57.495 138.46 58.125C138.1 58.745 137.595 59.23 136.945 59.58C136.295 59.93 135.56 60.105 134.74 60.105ZM134.74 58.5C135.43 58.5 136 58.27 136.45 57.81C136.9 57.35 137.125 56.745 137.125 55.995C137.125 55.245 136.9 54.64 136.45 54.18C136 53.72 135.43 53.49 134.74 53.49C134.05 53.49 133.48 53.72 133.03 54.18C132.59 54.64 132.37 55.245 132.37 55.995C132.37 56.745 132.59 57.35 133.03 57.81C133.48 58.27 134.05 58.5 134.74 58.5ZM143.283 60.105C142.633 60.105 141.998 60.02 141.378 59.85C140.758 59.68 140.263 59.465 139.893 59.205L140.613 57.78C140.973 58.02 141.403 58.215 141.903 58.365C142.413 58.505 142.913 58.575 143.403 58.575C144.523 58.575 145.083 58.28 145.083 57.69C145.083 57.41 144.938 57.215 144.648 57.105C144.368 56.995 143.913 56.89 143.283 56.79C142.623 56.69 142.083 56.575 141.663 56.445C141.253 56.315 140.893 56.09 140.583 55.77C140.283 55.44 140.133 54.985 140.133 54.405C140.133 53.645 140.448 53.04 141.078 52.59C141.718 52.13 142.578 51.9 143.658 51.9C144.208 51.9 144.758 51.965 145.308 52.095C145.858 52.215 146.308 52.38 146.658 52.59L145.938 54.015C145.258 53.615 144.493 53.415 143.643 53.415C143.093 53.415 142.673 53.5 142.383 53.67C142.103 53.83 141.963 54.045 141.963 54.315C141.963 54.615 142.113 54.83 142.413 54.96C142.723 55.08 143.198 55.195 143.838 55.305C144.478 55.405 145.003 55.52 145.413 55.65C145.823 55.78 146.173 56 146.463 56.31C146.763 56.62 146.913 57.06 146.913 57.63C146.913 58.38 146.588 58.98 145.938 59.43C145.288 59.88 144.403 60.105 143.283 60.105ZM153.073 51.9C154.083 51.9 154.893 52.195 155.503 52.785C156.113 53.375 156.418 54.25 156.418 55.41V60H154.543V55.65C154.543 54.95 154.378 54.425 154.048 54.075C153.718 53.715 153.248 53.535 152.638 53.535C151.948 53.535 151.403 53.745 151.003 54.165C150.603 54.575 150.403 55.17 150.403 55.95V60H148.528V48.87H150.403V52.92C150.713 52.59 151.093 52.34 151.543 52.17C152.003 51.99 152.513 51.9 153.073 51.9ZM166.551 51.99V60H164.766V58.98C164.466 59.34 164.091 59.62 163.641 59.82C163.191 60.01 162.706 60.105 162.186 60.105C161.116 60.105 160.271 59.81 159.651 59.22C159.041 58.62 158.736 57.735 158.736 56.565V51.99H160.611V56.31C160.611 57.03 160.771 57.57 161.091 57.93C161.421 58.28 161.886 58.455 162.486 58.455C163.156 58.455 163.686 58.25 164.076 57.84C164.476 57.42 164.676 56.82 164.676 56.04V51.99H166.551ZM172.066 51.9C173.246 51.9 174.146 52.185 174.766 52.755C175.396 53.315 175.711 54.165 175.711 55.305V60H173.941V59.025C173.711 59.375 173.381 59.645 172.951 59.835C172.531 60.015 172.021 60.105 171.421 60.105C170.821 60.105 170.296 60.005 169.846 59.805C169.396 59.595 169.046 59.31 168.796 58.95C168.556 58.58 168.436 58.165 168.436 57.705C168.436 56.985 168.701 56.41 169.231 55.98C169.771 55.54 170.616 55.32 171.766 55.32H173.836V55.2C173.836 54.64 173.666 54.21 173.326 53.91C172.996 53.61 172.501 53.46 171.841 53.46C171.391 53.46 170.946 53.53 170.506 53.67C170.076 53.81 169.711 54.005 169.411 54.255L168.676 52.89C169.096 52.57 169.601 52.325 170.191 52.155C170.781 51.985 171.406 51.9 172.066 51.9ZM171.811 58.74C172.281 58.74 172.696 58.635 173.056 58.425C173.426 58.205 173.686 57.895 173.836 57.495V56.565H171.901C170.821 56.565 170.281 56.92 170.281 57.63C170.281 57.97 170.416 58.24 170.686 58.44C170.956 58.64 171.331 58.74 171.811 58.74ZM187.303 60.15C186.243 60.15 185.283 59.92 184.423 59.46C183.573 58.99 182.903 58.345 182.413 57.525C181.933 56.705 181.693 55.78 181.693 54.75C181.693 53.72 181.938 52.795 182.428 51.975C182.918 51.155 183.588 50.515 184.438 50.055C185.298 49.585 186.258 49.35 187.318 49.35C188.178 49.35 188.963 49.5 189.673 49.8C190.383 50.1 190.983 50.535 191.473 51.105L190.213 52.29C189.453 51.47 188.518 51.06 187.408 51.06C186.688 51.06 186.043 51.22 185.473 51.54C184.903 51.85 184.458 52.285 184.138 52.845C183.818 53.405 183.658 54.04 183.658 54.75C183.658 55.46 183.818 56.095 184.138 56.655C184.458 57.215 184.903 57.655 185.473 57.975C186.043 58.285 186.688 58.44 187.408 58.44C188.518 58.44 189.453 58.025 190.213 57.195L191.473 58.395C190.983 58.965 190.378 59.4 189.658 59.7C188.948 60 188.163 60.15 187.303 60.15ZM197.707 51.9C198.717 51.9 199.527 52.195 200.137 52.785C200.747 53.375 201.052 54.25 201.052 55.41V60H199.177V55.65C199.177 54.95 199.012 54.425 198.682 54.075C198.352 53.715 197.882 53.535 197.272 53.535C196.582 53.535 196.037 53.745 195.637 54.165C195.237 54.575 195.037 55.17 195.037 55.95V60H193.162V48.87H195.037V52.92C195.347 52.59 195.727 52.34 196.177 52.17C196.637 51.99 197.147 51.9 197.707 51.9ZM203.43 51.99H205.305V60H203.43V51.99ZM204.375 50.67C204.035 50.67 203.75 50.565 203.52 50.355C203.29 50.135 203.175 49.865 203.175 49.545C203.175 49.225 203.29 48.96 203.52 48.75C203.75 48.53 204.035 48.42 204.375 48.42C204.715 48.42 205 48.525 205.23 48.735C205.46 48.935 205.575 49.19 205.575 49.5C205.575 49.83 205.46 50.11 205.23 50.34C205.01 50.56 204.725 50.67 204.375 50.67ZM211.036 56.565L209.641 57.885V60H207.766V48.87H209.641V55.59L213.526 51.99H215.776L212.431 55.35L216.091 60H213.811L211.036 56.565ZM224.495 56.04C224.495 56.17 224.485 56.355 224.465 56.595H218.18C218.29 57.185 218.575 57.655 219.035 58.005C219.505 58.345 220.085 58.515 220.775 58.515C221.655 58.515 222.38 58.225 222.95 57.645L223.955 58.8C223.595 59.23 223.14 59.555 222.59 59.775C222.04 59.995 221.42 60.105 220.73 60.105C219.85 60.105 219.075 59.93 218.405 59.58C217.735 59.23 217.215 58.745 216.845 58.125C216.485 57.495 216.305 56.785 216.305 55.995C216.305 55.215 216.48 54.515 216.83 53.895C217.19 53.265 217.685 52.775 218.315 52.425C218.945 52.075 219.655 51.9 220.445 51.9C221.225 51.9 221.92 52.075 222.53 52.425C223.15 52.765 223.63 53.25 223.97 53.88C224.32 54.5 224.495 55.22 224.495 56.04ZM220.445 53.4C219.845 53.4 219.335 53.58 218.915 53.94C218.505 54.29 218.255 54.76 218.165 55.35H222.71C222.63 54.77 222.385 54.3 221.975 53.94C221.565 53.58 221.055 53.4 220.445 53.4Z" fill="#12121F"/>
<path d="M125.732 34.12C125.084 34.12 124.456 34.028 123.848 33.844C123.248 33.66 122.772 33.416 122.42 33.112L122.96 31.9C123.304 32.172 123.724 32.396 124.22 32.572C124.724 32.74 125.228 32.824 125.732 32.824C126.356 32.824 126.82 32.724 127.124 32.524C127.436 32.324 127.592 32.06 127.592 31.732C127.592 31.492 127.504 31.296 127.328 31.144C127.16 30.984 126.944 30.86 126.68 30.772C126.416 30.684 126.056 30.584 125.6 30.472C124.96 30.32 124.44 30.168 124.04 30.016C123.648 29.864 123.308 29.628 123.02 29.308C122.74 28.98 122.6 28.54 122.6 27.988C122.6 27.524 122.724 27.104 122.972 26.728C123.228 26.344 123.608 26.04 124.112 25.816C124.624 25.592 125.248 25.48 125.984 25.48C126.496 25.48 127 25.544 127.496 25.672C127.992 25.8 128.42 25.984 128.78 26.224L128.288 27.436C127.92 27.22 127.536 27.056 127.136 26.944C126.736 26.832 126.348 26.776 125.972 26.776C125.356 26.776 124.896 26.88 124.592 27.088C124.296 27.296 124.148 27.572 124.148 27.916C124.148 28.156 124.232 28.352 124.4 28.504C124.576 28.656 124.796 28.776 125.06 28.864C125.324 28.952 125.684 29.052 126.14 29.164C126.764 29.308 127.276 29.46 127.676 29.62C128.076 29.772 128.416 30.008 128.696 30.328C128.984 30.648 129.128 31.08 129.128 31.624C129.128 32.088 129 32.508 128.744 32.884C128.496 33.26 128.116 33.56 127.604 33.784C127.092 34.008 126.468 34.12 125.732 34.12ZM136.735 27.592V34H135.307V33.184C135.067 33.472 134.767 33.696 134.407 33.856C134.047 34.008 133.659 34.084 133.243 34.084C132.387 34.084 131.711 33.848 131.215 33.376C130.727 32.896 130.483 32.188 130.483 31.252V27.592H131.983V31.048C131.983 31.624 132.111 32.056 132.367 32.344C132.631 32.624 133.003 32.764 133.483 32.764C134.019 32.764 134.443 32.6 134.755 32.272C135.075 31.936 135.235 31.456 135.235 30.832V27.592H136.735ZM142.251 27.52C142.875 27.52 143.431 27.656 143.919 27.928C144.415 28.2 144.803 28.584 145.083 29.08C145.363 29.576 145.503 30.148 145.503 30.796C145.503 31.444 145.363 32.02 145.083 32.524C144.803 33.02 144.415 33.404 143.919 33.676C143.431 33.948 142.875 34.084 142.251 34.084C141.811 34.084 141.407 34.008 141.039 33.856C140.679 33.704 140.375 33.476 140.127 33.172V34H138.699V25.096H140.199V28.372C140.455 28.092 140.755 27.88 141.099 27.736C141.451 27.592 141.835 27.52 142.251 27.52ZM142.083 32.8C142.635 32.8 143.087 32.616 143.439 32.248C143.799 31.88 143.979 31.396 143.979 30.796C143.979 30.196 143.799 29.712 143.439 29.344C143.087 28.976 142.635 28.792 142.083 28.792C141.723 28.792 141.399 28.876 141.111 29.044C140.823 29.204 140.595 29.436 140.427 29.74C140.259 30.044 140.175 30.396 140.175 30.796C140.175 31.196 140.259 31.548 140.427 31.852C140.595 32.156 140.823 32.392 141.111 32.56C141.399 32.72 141.723 32.8 142.083 32.8ZM146.719 30.04H150.019V31.288H146.719V30.04ZM154.108 27.52C155.052 27.52 155.772 27.748 156.268 28.204C156.772 28.652 157.024 29.332 157.024 30.244V34H155.608V33.22C155.424 33.5 155.16 33.716 154.816 33.868C154.48 34.012 154.072 34.084 153.592 34.084C153.112 34.084 152.692 34.004 152.332 33.844C151.972 33.676 151.692 33.448 151.492 33.16C151.3 32.864 151.204 32.532 151.204 32.164C151.204 31.588 151.416 31.128 151.84 30.784C152.272 30.432 152.948 30.256 153.868 30.256H155.524V30.16C155.524 29.712 155.388 29.368 155.116 29.128C154.852 28.888 154.456 28.768 153.928 28.768C153.568 28.768 153.212 28.824 152.86 28.936C152.516 29.048 152.224 29.204 151.984 29.404L151.396 28.312C151.732 28.056 152.136 27.86 152.608 27.724C153.08 27.588 153.58 27.52 154.108 27.52ZM153.904 32.992C154.28 32.992 154.612 32.908 154.9 32.74C155.196 32.564 155.404 32.316 155.524 31.996V31.252H153.976C153.112 31.252 152.68 31.536 152.68 32.104C152.68 32.376 152.788 32.592 153.004 32.752C153.22 32.912 153.52 32.992 153.904 32.992ZM161.947 34.084C161.283 34.084 160.687 33.944 160.159 33.664C159.631 33.384 159.219 32.996 158.923 32.5C158.627 31.996 158.479 31.428 158.479 30.796C158.479 30.164 158.627 29.6 158.923 29.104C159.219 28.608 159.627 28.22 160.147 27.94C160.675 27.66 161.275 27.52 161.947 27.52C162.579 27.52 163.131 27.648 163.603 27.904C164.083 28.16 164.443 28.528 164.683 29.008L163.531 29.68C163.347 29.384 163.115 29.164 162.835 29.02C162.563 28.868 162.263 28.792 161.935 28.792C161.375 28.792 160.911 28.976 160.543 29.344C160.175 29.704 159.991 30.188 159.991 30.796C159.991 31.404 160.171 31.892 160.531 32.26C160.899 32.62 161.367 32.8 161.935 32.8C162.263 32.8 162.563 32.728 162.835 32.584C163.115 32.432 163.347 32.208 163.531 31.912L164.683 32.584C164.435 33.064 164.071 33.436 163.591 33.7C163.119 33.956 162.571 34.084 161.947 34.084ZM168.826 34.084C168.162 34.084 167.566 33.944 167.038 33.664C166.51 33.384 166.098 32.996 165.802 32.5C165.506 31.996 165.358 31.428 165.358 30.796C165.358 30.164 165.506 29.6 165.802 29.104C166.098 28.608 166.506 28.22 167.026 27.94C167.554 27.66 168.154 27.52 168.826 27.52C169.458 27.52 170.01 27.648 170.482 27.904C170.962 28.16 171.322 28.528 171.562 29.008L170.41 29.68C170.226 29.384 169.994 29.164 169.714 29.02C169.442 28.868 169.142 28.792 168.814 28.792C168.254 28.792 167.79 28.976 167.422 29.344C167.054 29.704 166.87 30.188 166.87 30.796C166.87 31.404 167.05 31.892 167.41 32.26C167.778 32.62 168.246 32.8 168.814 32.8C169.142 32.8 169.442 32.728 169.714 32.584C169.994 32.432 170.226 32.208 170.41 31.912L171.562 32.584C171.314 33.064 170.95 33.436 170.47 33.7C169.998 33.956 169.45 34.084 168.826 34.084ZM175.645 34.084C174.997 34.084 174.413 33.944 173.893 33.664C173.373 33.384 172.965 32.996 172.669 32.5C172.381 31.996 172.237 31.428 172.237 30.796C172.237 30.164 172.381 29.6 172.669 29.104C172.965 28.608 173.373 28.22 173.893 27.94C174.413 27.66 174.997 27.52 175.645 27.52C176.301 27.52 176.889 27.66 177.409 27.94C177.929 28.22 178.333 28.608 178.621 29.104C178.917 29.6 179.065 30.164 179.065 30.796C179.065 31.428 178.917 31.996 178.621 32.5C178.333 32.996 177.929 33.384 177.409 33.664C176.889 33.944 176.301 34.084 175.645 34.084ZM175.645 32.8C176.197 32.8 176.653 32.616 177.013 32.248C177.373 31.88 177.553 31.396 177.553 30.796C177.553 30.196 177.373 29.712 177.013 29.344C176.653 28.976 176.197 28.792 175.645 28.792C175.093 28.792 174.637 28.976 174.277 29.344C173.925 29.712 173.749 30.196 173.749 30.796C173.749 31.396 173.925 31.88 174.277 32.248C174.637 32.616 175.093 32.8 175.645 32.8ZM186.704 27.592V34H185.276V33.184C185.036 33.472 184.736 33.696 184.376 33.856C184.016 34.008 183.628 34.084 183.212 34.084C182.356 34.084 181.68 33.848 181.184 33.376C180.696 32.896 180.452 32.188 180.452 31.252V27.592H181.952V31.048C181.952 31.624 182.08 32.056 182.336 32.344C182.6 32.624 182.972 32.764 183.452 32.764C183.988 32.764 184.412 32.6 184.724 32.272C185.044 31.936 185.204 31.456 185.204 30.832V27.592H186.704ZM192.304 27.52C193.112 27.52 193.76 27.756 194.248 28.228C194.736 28.7 194.98 29.4 194.98 30.328V34H193.48V30.52C193.48 29.96 193.348 29.54 193.084 29.26C192.82 28.972 192.444 28.828 191.956 28.828C191.404 28.828 190.968 28.996 190.648 29.332C190.328 29.66 190.168 30.136 190.168 30.76V34H188.668V27.592H190.096V28.42C190.344 28.124 190.656 27.9 191.032 27.748C191.408 27.596 191.832 27.52 192.304 27.52ZM200.734 33.652C200.558 33.796 200.342 33.904 200.086 33.976C199.838 34.048 199.574 34.084 199.294 34.084C198.59 34.084 198.046 33.9 197.662 33.532C197.278 33.164 197.086 32.628 197.086 31.924V28.84H196.03V27.64H197.086V26.176H198.586V27.64H200.302V28.84H198.586V31.888C198.586 32.2 198.662 32.44 198.814 32.608C198.966 32.768 199.186 32.848 199.474 32.848C199.81 32.848 200.09 32.76 200.314 32.584L200.734 33.652ZM203.948 34.084C203.428 34.084 202.92 34.016 202.424 33.88C201.928 33.744 201.532 33.572 201.236 33.364L201.812 32.224C202.1 32.416 202.444 32.572 202.844 32.692C203.252 32.804 203.652 32.86 204.044 32.86C204.94 32.86 205.388 32.624 205.388 32.152C205.388 31.928 205.272 31.772 205.04 31.684C204.816 31.596 204.452 31.512 203.948 31.432C203.42 31.352 202.988 31.26 202.652 31.156C202.324 31.052 202.036 30.872 201.788 30.616C201.548 30.352 201.428 29.988 201.428 29.524C201.428 28.916 201.68 28.432 202.184 28.072C202.696 27.704 203.384 27.52 204.248 27.52C204.688 27.52 205.128 27.572 205.568 27.676C206.008 27.772 206.368 27.904 206.648 28.072L206.072 29.212C205.528 28.892 204.916 28.732 204.236 28.732C203.796 28.732 203.46 28.8 203.228 28.936C203.004 29.064 202.892 29.236 202.892 29.452C202.892 29.692 203.012 29.864 203.252 29.968C203.5 30.064 203.88 30.156 204.392 30.244C204.904 30.324 205.324 30.416 205.652 30.52C205.98 30.624 206.26 30.8 206.492 31.048C206.732 31.296 206.852 31.648 206.852 32.104C206.852 32.704 206.592 33.184 206.072 33.544C205.552 33.904 204.844 34.084 203.948 34.084Z" fill="#AFAFBD"/>
<rect x="218" y="29" width="2" height="2" rx="1" fill="#AFAFBD"/>
<path d="M222.732 34.12C222.084 34.12 221.456 34.028 220.848 33.844C220.248 33.66 219.772 33.416 219.42 33.112L219.96 31.9C220.304 32.172 220.724 32.396 221.22 32.572C221.724 32.74 222.228 32.824 222.732 32.824C223.356 32.824 223.82 32.724 224.124 32.524C224.436 32.324 224.592 32.06 224.592 31.732C224.592 31.492 224.504 31.296 224.328 31.144C224.16 30.984 223.944 30.86 223.68 30.772C223.416 30.684 223.056 30.584 222.6 30.472C221.96 30.32 221.44 30.168 221.04 30.016C220.648 29.864 220.308 29.628 220.02 29.308C219.74 28.98 219.6 28.54 219.6 27.988C219.6 27.524 219.724 27.104 219.972 26.728C220.228 26.344 220.608 26.04 221.112 25.816C221.624 25.592 222.248 25.48 222.984 25.48C223.496 25.48 224 25.544 224.496 25.672C224.992 25.8 225.42 25.984 225.78 26.224L225.288 27.436C224.92 27.22 224.536 27.056 224.136 26.944C223.736 26.832 223.348 26.776 222.972 26.776C222.356 26.776 221.896 26.88 221.592 27.088C221.296 27.296 221.148 27.572 221.148 27.916C221.148 28.156 221.232 28.352 221.4 28.504C221.576 28.656 221.796 28.776 222.06 28.864C222.324 28.952 222.684 29.052 223.14 29.164C223.764 29.308 224.276 29.46 224.676 29.62C225.076 29.772 225.416 30.008 225.696 30.328C225.984 30.648 226.128 31.08 226.128 31.624C226.128 32.088 226 32.508 225.744 32.884C225.496 33.26 225.116 33.56 224.604 33.784C224.092 34.008 223.468 34.12 222.732 34.12ZM231.383 33.652C231.207 33.796 230.991 33.904 230.735 33.976C230.487 34.048 230.223 34.084 229.943 34.084C229.239 34.084 228.695 33.9 228.311 33.532C227.927 33.164 227.735 32.628 227.735 31.924V28.84H226.679V27.64H227.735V26.176H229.235V27.64H230.951V28.84H229.235V31.888C229.235 32.2 229.311 32.44 229.463 32.608C229.615 32.768 229.835 32.848 230.123 32.848C230.459 32.848 230.739 32.76 230.963 32.584L231.383 33.652ZM235.065 27.52C236.009 27.52 236.729 27.748 237.225 28.204C237.729 28.652 237.981 29.332 237.981 30.244V34H236.565V33.22C236.381 33.5 236.117 33.716 235.773 33.868C235.437 34.012 235.029 34.084 234.549 34.084C234.069 34.084 233.649 34.004 233.289 33.844C232.929 33.676 232.649 33.448 232.449 33.16C232.257 32.864 232.161 32.532 232.161 32.164C232.161 31.588 232.373 31.128 232.797 30.784C233.229 30.432 233.905 30.256 234.825 30.256H236.481V30.16C236.481 29.712 236.345 29.368 236.073 29.128C235.809 28.888 235.413 28.768 234.885 28.768C234.525 28.768 234.169 28.824 233.817 28.936C233.473 29.048 233.181 29.204 232.941 29.404L232.353 28.312C232.689 28.056 233.093 27.86 233.565 27.724C234.037 27.588 234.537 27.52 235.065 27.52ZM234.861 32.992C235.237 32.992 235.569 32.908 235.857 32.74C236.153 32.564 236.361 32.316 236.481 31.996V31.252H234.933C234.069 31.252 233.637 31.536 233.637 32.104C233.637 32.376 233.745 32.592 233.961 32.752C234.177 32.912 234.477 32.992 234.861 32.992ZM243.758 33.652C243.582 33.796 243.366 33.904 243.11 33.976C242.862 34.048 242.598 34.084 242.318 34.084C241.614 34.084 241.07 33.9 240.686 33.532C240.302 33.164 240.11 32.628 240.11 31.924V28.84H239.054V27.64H240.11V26.176H241.61V27.64H243.326V28.84H241.61V31.888C241.61 32.2 241.686 32.44 241.838 32.608C241.99 32.768 242.21 32.848 242.498 32.848C242.834 32.848 243.114 32.76 243.338 32.584L243.758 33.652ZM251.196 27.592V34H249.768V33.184C249.528 33.472 249.228 33.696 248.868 33.856C248.508 34.008 248.12 34.084 247.704 34.084C246.848 34.084 246.172 33.848 245.676 33.376C245.188 32.896 244.944 32.188 244.944 31.252V27.592H246.444V31.048C246.444 31.624 246.572 32.056 246.828 32.344C247.092 32.624 247.464 32.764 247.944 32.764C248.48 32.764 248.904 32.6 249.216 32.272C249.536 31.936 249.696 31.456 249.696 30.832V27.592H251.196ZM255.14 34.084C254.62 34.084 254.112 34.016 253.616 33.88C253.12 33.744 252.724 33.572 252.428 33.364L253.004 32.224C253.292 32.416 253.636 32.572 254.036 32.692C254.444 32.804 254.844 32.86 255.236 32.86C256.132 32.86 256.58 32.624 256.58 32.152C256.58 31.928 256.464 31.772 256.232 31.684C256.008 31.596 255.644 31.512 255.14 31.432C254.612 31.352 254.18 31.26 253.844 31.156C253.516 31.052 253.228 30.872 252.98 30.616C252.74 30.352 252.62 29.988 252.62 29.524C252.62 28.916 252.872 28.432 253.376 28.072C253.888 27.704 254.576 27.52 255.44 27.52C255.88 27.52 256.32 27.572 256.76 27.676C257.2 27.772 257.56 27.904 257.84 28.072L257.264 29.212C256.72 28.892 256.108 28.732 255.428 28.732C254.988 28.732 254.652 28.8 254.42 28.936C254.196 29.064 254.084 29.236 254.084 29.452C254.084 29.692 254.204 29.864 254.444 29.968C254.692 30.064 255.072 30.156 255.584 30.244C256.096 30.324 256.516 30.416 256.844 30.52C257.172 30.624 257.452 30.8 257.684 31.048C257.924 31.296 258.044 31.648 258.044 32.104C258.044 32.704 257.784 33.184 257.264 33.544C256.744 33.904 256.036 34.084 255.14 34.084Z" fill="#99BF18"/>
<defs>
<filter id="filter0_ddd" x="0" y="0" width="412" height="191" filterUnits="userSpaceOnUse" color-interpolation-filters="sRGB">
<feFlood flood-opacity="0" result="BackgroundImageFix"/>
<feColorMatrix in="SourceAlpha" type="matrix" values="0 0 0 0 0 0 0 0 0 0 0 0 0 0 0 0 0 0 127 0"/>
<feOffset dx="55" dy="65"/>
<feGaussianBlur stdDeviation="10"/>
<feColorMatrix type="matrix" values="0 0 0 0 0.6 0 0 0 0 0.74902 0 0 0 0 0.0941176 0 0 0 0.06 0"/>
<feBlend mode="normal" in2="BackgroundImageFix" result="effect1_dropShadow"/>
<feColorMatrix in="SourceAlpha" type="matrix" values="0 0 0 0 0 0 0 0 0 0 0 0 0 0 0 0 0 0 127 0"/>
<feOffset dx="20" dy="30"/>
<feGaussianBlur stdDeviation="10"/>
<feColorMatrix type="matrix" values="0 0 0 0 0.6 0 0 0 0 0.74902 0 0 0 0 0.0941176 0 0 0 0.06 0"/>
<feBlend mode="normal" in2="effect1_dropShadow" result="effect2_dropShadow"/>
<feColorMatrix in="SourceAlpha" type="matrix" values="0 0 0 0 0 0 0 0 0 0 0 0 0 0 0 0 0 0 127 0"/>
<feOffset dx="10" dy="20"/>
<feGaussianBlur stdDeviation="10"/>
<feColorMatrix type="matrix" values="0 0 0 0 0.6 0 0 0 0 0.74902 0 0 0 0 0.0941176 0 0 0 0.04 0"/>
<feBlend mode="normal" in2="effect2_dropShadow" result="effect3_dropShadow"/>
<feBlend mode="normal" in="SourceGraphic" in2="effect3_dropShadow" result="shape"/>
</filter>
</defs>
</svg>
