<svg width="460" height="179" viewBox="0 0 460 179" fill="none" xmlns="http://www.w3.org/2000/svg">
<g filter="url(#filter0_ddd)">
<rect x="10" width="375" height="94" rx="24" fill="white"/>
</g>
<rect x="42" y="23" width="48" height="48" rx="8" fill="#99BF18"/>
<path d="M110.58 36.63H112.425V40.815C111.885 41.245 111.255 41.575 110.535 41.805C109.815 42.035 109.075 42.15 108.315 42.15C107.245 42.15 106.28 41.92 105.42 41.46C104.56 40.99 103.885 40.345 103.395 39.525C102.905 38.705 102.66 37.78 102.66 36.75C102.66 35.72 102.905 34.795 103.395 33.975C103.885 33.155 104.56 32.515 105.42 32.055C106.29 31.585 107.265 31.35 108.345 31.35C109.225 31.35 110.025 31.495 110.745 31.785C111.465 32.075 112.07 32.5 112.56 33.06L111.33 34.26C110.53 33.46 109.565 33.06 108.435 33.06C107.695 33.06 107.035 33.215 106.455 33.525C105.885 33.835 105.435 34.27 105.105 34.83C104.785 35.39 104.625 36.03 104.625 36.75C104.625 37.45 104.785 38.08 105.105 38.64C105.435 39.2 105.885 39.64 106.455 39.96C107.035 40.28 107.69 40.44 108.42 40.44C109.24 40.44 109.96 40.26 110.58 39.9V36.63ZM116.852 35.16C117.392 34.32 118.342 33.9 119.702 33.9V35.685C119.542 35.655 119.397 35.64 119.267 35.64C118.537 35.64 117.967 35.855 117.557 36.285C117.147 36.705 116.942 37.315 116.942 38.115V42H115.067V33.99H116.852V35.16ZM125.069 42.105C124.259 42.105 123.529 41.93 122.879 41.58C122.229 41.23 121.719 40.745 121.349 40.125C120.989 39.495 120.809 38.785 120.809 37.995C120.809 37.205 120.989 36.5 121.349 35.88C121.719 35.26 122.229 34.775 122.879 34.425C123.529 34.075 124.259 33.9 125.069 33.9C125.889 33.9 126.624 34.075 127.274 34.425C127.924 34.775 128.429 35.26 128.789 35.88C129.159 36.5 129.344 37.205 129.344 37.995C129.344 38.785 129.159 39.495 128.789 40.125C128.429 40.745 127.924 41.23 127.274 41.58C126.624 41.93 125.889 42.105 125.069 42.105ZM125.069 40.5C125.759 40.5 126.329 40.27 126.779 39.81C127.229 39.35 127.454 38.745 127.454 37.995C127.454 37.245 127.229 36.64 126.779 36.18C126.329 35.72 125.759 35.49 125.069 35.49C124.379 35.49 123.809 35.72 123.359 36.18C122.919 36.64 122.699 37.245 122.699 37.995C122.699 38.745 122.919 39.35 123.359 39.81C123.809 40.27 124.379 40.5 125.069 40.5ZM139.142 33.99V42H137.357V40.98C137.057 41.34 136.682 41.62 136.232 41.82C135.782 42.01 135.297 42.105 134.777 42.105C133.707 42.105 132.862 41.81 132.242 41.22C131.632 40.62 131.327 39.735 131.327 38.565V33.99H133.202V38.31C133.202 39.03 133.362 39.57 133.682 39.93C134.012 40.28 134.477 40.455 135.077 40.455C135.747 40.455 136.277 40.25 136.667 39.84C137.067 39.42 137.267 38.82 137.267 38.04V33.99H139.142ZM146.287 33.9C147.067 33.9 147.762 34.07 148.372 34.41C148.992 34.75 149.477 35.23 149.827 35.85C150.177 36.47 150.352 37.185 150.352 37.995C150.352 38.805 150.177 39.525 149.827 40.155C149.477 40.775 148.992 41.255 148.372 41.595C147.762 41.935 147.067 42.105 146.287 42.105C145.207 42.105 144.352 41.745 143.722 41.025V44.91H141.847V33.99H143.632V35.04C143.942 34.66 144.322 34.375 144.772 34.185C145.232 33.995 145.737 33.9 146.287 33.9ZM146.077 40.5C146.767 40.5 147.332 40.27 147.772 39.81C148.222 39.35 148.447 38.745 148.447 37.995C148.447 37.245 148.222 36.64 147.772 36.18C147.332 35.72 146.767 35.49 146.077 35.49C145.627 35.49 145.222 35.595 144.862 35.805C144.502 36.005 144.217 36.295 144.007 36.675C143.797 37.055 143.692 37.495 143.692 37.995C143.692 38.495 143.797 38.935 144.007 39.315C144.217 39.695 144.502 39.99 144.862 40.2C145.222 40.4 145.627 40.5 146.077 40.5ZM160.211 42.15C159.401 42.15 158.616 42.035 157.856 41.805C157.106 41.575 156.511 41.27 156.071 40.89L156.746 39.375C157.176 39.715 157.701 39.995 158.321 40.215C158.951 40.425 159.581 40.53 160.211 40.53C160.991 40.53 161.571 40.405 161.951 40.155C162.341 39.905 162.536 39.575 162.536 39.165C162.536 38.865 162.426 38.62 162.206 38.43C161.996 38.23 161.726 38.075 161.396 37.965C161.066 37.855 160.616 37.73 160.046 37.59C159.246 37.4 158.596 37.21 158.096 37.02C157.606 36.83 157.181 36.535 156.821 36.135C156.471 35.725 156.296 35.175 156.296 34.485C156.296 33.905 156.451 33.38 156.761 32.91C157.081 32.43 157.556 32.05 158.186 31.77C158.826 31.49 159.606 31.35 160.526 31.35C161.166 31.35 161.796 31.43 162.416 31.59C163.036 31.75 163.571 31.98 164.021 32.28L163.406 33.795C162.946 33.525 162.466 33.32 161.966 33.18C161.466 33.04 160.981 32.97 160.511 32.97C159.741 32.97 159.166 33.1 158.786 33.36C158.416 33.62 158.231 33.965 158.231 34.395C158.231 34.695 158.336 34.94 158.546 35.13C158.766 35.32 159.041 35.47 159.371 35.58C159.701 35.69 160.151 35.815 160.721 35.955C161.501 36.135 162.141 36.325 162.641 36.525C163.141 36.715 163.566 37.01 163.916 37.41C164.276 37.81 164.456 38.35 164.456 39.03C164.456 39.61 164.296 40.135 163.976 40.605C163.666 41.075 163.191 41.45 162.551 41.73C161.911 42.01 161.131 42.15 160.211 42.15ZM169.519 33.9C170.699 33.9 171.599 34.185 172.219 34.755C172.849 35.315 173.164 36.165 173.164 37.305V42H171.394V41.025C171.164 41.375 170.834 41.645 170.404 41.835C169.984 42.015 169.474 42.105 168.874 42.105C168.274 42.105 167.749 42.005 167.299 41.805C166.849 41.595 166.499 41.31 166.249 40.95C166.009 40.58 165.889 40.165 165.889 39.705C165.889 38.985 166.154 38.41 166.684 37.98C167.224 37.54 168.069 37.32 169.219 37.32H171.289V37.2C171.289 36.64 171.119 36.21 170.779 35.91C170.449 35.61 169.954 35.46 169.294 35.46C168.844 35.46 168.399 35.53 167.959 35.67C167.529 35.81 167.164 36.005 166.864 36.255L166.129 34.89C166.549 34.57 167.054 34.325 167.644 34.155C168.234 33.985 168.859 33.9 169.519 33.9ZM169.264 40.74C169.734 40.74 170.149 40.635 170.509 40.425C170.879 40.205 171.139 39.895 171.289 39.495V38.565H169.354C168.274 38.565 167.734 38.92 167.734 39.63C167.734 39.97 167.869 40.24 168.139 40.44C168.409 40.64 168.784 40.74 169.264 40.74ZM183.174 33.99L179.739 42H177.804L174.369 33.99H176.319L178.809 39.93L181.374 33.99H183.174ZM184.596 33.99H186.471V42H184.596V33.99ZM185.541 32.67C185.201 32.67 184.916 32.565 184.686 32.355C184.456 32.135 184.341 31.865 184.341 31.545C184.341 31.225 184.456 30.96 184.686 30.75C184.916 30.53 185.201 30.42 185.541 30.42C185.881 30.42 186.166 30.525 186.396 30.735C186.626 30.935 186.741 31.19 186.741 31.5C186.741 31.83 186.626 32.11 186.396 32.34C186.176 32.56 185.891 32.67 185.541 32.67ZM193.727 33.9C194.737 33.9 195.547 34.195 196.157 34.785C196.767 35.375 197.072 36.25 197.072 37.41V42H195.197V37.65C195.197 36.95 195.032 36.425 194.702 36.075C194.372 35.715 193.902 35.535 193.292 35.535C192.602 35.535 192.057 35.745 191.657 36.165C191.257 36.575 191.057 37.17 191.057 37.95V42H189.182V33.99H190.967V35.025C191.277 34.655 191.667 34.375 192.137 34.185C192.607 33.995 193.137 33.9 193.727 33.9ZM207.724 33.99V40.785C207.724 43.605 206.284 45.015 203.404 45.015C202.634 45.015 201.904 44.915 201.214 44.715C200.524 44.525 199.954 44.245 199.504 43.875L200.344 42.465C200.694 42.755 201.134 42.985 201.664 43.155C202.204 43.335 202.749 43.425 203.299 43.425C204.179 43.425 204.824 43.225 205.234 42.825C205.644 42.425 205.849 41.815 205.849 40.995V40.575C205.529 40.925 205.139 41.19 204.679 41.37C204.219 41.55 203.714 41.64 203.164 41.64C202.404 41.64 201.714 41.48 201.094 41.16C200.484 40.83 199.999 40.37 199.639 39.78C199.289 39.19 199.114 38.515 199.114 37.755C199.114 36.995 199.289 36.325 199.639 35.745C199.999 35.155 200.484 34.7 201.094 34.38C201.714 34.06 202.404 33.9 203.164 33.9C203.744 33.9 204.269 33.995 204.739 34.185C205.219 34.375 205.619 34.665 205.939 35.055V33.99H207.724ZM203.449 40.05C204.159 40.05 204.739 39.84 205.189 39.42C205.649 38.99 205.879 38.435 205.879 37.755C205.879 37.085 205.649 36.54 205.189 36.12C204.739 35.7 204.159 35.49 203.449 35.49C202.729 35.49 202.139 35.7 201.679 36.12C201.229 36.54 201.004 37.085 201.004 37.755C201.004 38.435 201.229 38.99 201.679 39.42C202.139 39.84 202.729 40.05 203.449 40.05ZM212.914 42.105C212.264 42.105 211.629 42.02 211.009 41.85C210.389 41.68 209.894 41.465 209.524 41.205L210.244 39.78C210.604 40.02 211.034 40.215 211.534 40.365C212.044 40.505 212.544 40.575 213.034 40.575C214.154 40.575 214.714 40.28 214.714 39.69C214.714 39.41 214.569 39.215 214.279 39.105C213.999 38.995 213.544 38.89 212.914 38.79C212.254 38.69 211.714 38.575 211.294 38.445C210.884 38.315 210.524 38.09 210.214 37.77C209.914 37.44 209.764 36.985 209.764 36.405C209.764 35.645 210.079 35.04 210.709 34.59C211.349 34.13 212.209 33.9 213.289 33.9C213.839 33.9 214.389 33.965 214.939 34.095C215.489 34.215 215.939 34.38 216.289 34.59L215.569 36.015C214.889 35.615 214.124 35.415 213.274 35.415C212.724 35.415 212.304 35.5 212.014 35.67C211.734 35.83 211.594 36.045 211.594 36.315C211.594 36.615 211.744 36.83 212.044 36.96C212.354 37.08 212.829 37.195 213.469 37.305C214.109 37.405 214.634 37.52 215.044 37.65C215.454 37.78 215.804 38 216.094 38.31C216.394 38.62 216.544 39.06 216.544 39.63C216.544 40.38 216.219 40.98 215.569 41.43C214.919 41.88 214.034 42.105 212.914 42.105Z" fill="#12121F"/>
<path d="M124.908 63H126.063L122.565 55.3H121.476L117.989 63H119.122L119.969 61.075H124.061L124.908 63ZM120.354 60.195L122.015 56.422L123.676 60.195H120.354ZM131.448 54.838V58.05C130.964 57.423 130.238 57.115 129.413 57.115C127.708 57.115 126.465 58.303 126.465 60.085C126.465 61.867 127.708 63.066 129.413 63.066C130.271 63.066 131.019 62.736 131.492 62.076V63H132.504V54.838H131.448ZM129.501 62.142C128.379 62.142 127.532 61.328 127.532 60.085C127.532 58.842 128.379 58.039 129.501 58.039C130.612 58.039 131.459 58.842 131.459 60.085C131.459 61.328 130.612 62.142 129.501 62.142ZM138.946 54.838V58.05C138.462 57.423 137.736 57.115 136.911 57.115C135.206 57.115 133.963 58.303 133.963 60.085C133.963 61.867 135.206 63.066 136.911 63.066C137.769 63.066 138.517 62.736 138.99 62.076V63H140.002V54.838H138.946ZM136.999 62.142C135.877 62.142 135.03 61.328 135.03 60.085C135.03 58.842 135.877 58.039 136.999 58.039C138.11 58.039 138.957 58.842 138.957 60.085C138.957 61.328 138.11 62.142 136.999 62.142ZM147.088 55.641C147.396 55.641 147.682 55.751 147.902 55.916L148.221 55.113C147.924 54.882 147.484 54.772 147.033 54.772C145.79 54.772 145.108 55.52 145.108 56.653V57.17H144.118V58.039H145.108V63H146.164V58.039H147.836V57.17H146.142V56.664C146.142 55.993 146.461 55.641 147.088 55.641ZM150.725 58.149V57.17H149.713V63H150.769V60.096C150.769 58.82 151.473 58.127 152.606 58.127C152.683 58.127 152.76 58.127 152.848 58.138V57.115C151.825 57.115 151.099 57.467 150.725 58.149ZM154.677 56.048C155.095 56.048 155.392 55.74 155.392 55.344C155.392 54.97 155.084 54.673 154.677 54.673C154.27 54.673 153.962 54.981 153.962 55.366C153.962 55.751 154.27 56.048 154.677 56.048ZM154.149 63H155.205V57.17H154.149V63ZM162.491 60.118C162.491 58.325 161.292 57.115 159.609 57.115C157.926 57.115 156.683 58.358 156.683 60.085C156.683 61.823 157.937 63.066 159.818 63.066C160.786 63.066 161.589 62.736 162.117 62.12L161.534 61.438C161.105 61.911 160.533 62.142 159.851 62.142C158.696 62.142 157.871 61.46 157.739 60.437H162.469C162.48 60.338 162.491 60.206 162.491 60.118ZM159.609 58.006C160.632 58.006 161.369 58.699 161.479 59.678H157.739C157.849 58.688 158.597 58.006 159.609 58.006ZM167.07 57.115C166.146 57.115 165.398 57.456 164.969 58.05V57.17H163.957V63H165.013V59.997C165.013 58.732 165.739 58.061 166.861 58.061C167.862 58.061 168.434 58.622 168.434 59.766V63H169.49V59.645C169.49 57.929 168.489 57.115 167.07 57.115ZM175.921 54.838V58.05C175.437 57.423 174.711 57.115 173.886 57.115C172.181 57.115 170.938 58.303 170.938 60.085C170.938 61.867 172.181 63.066 173.886 63.066C174.744 63.066 175.492 62.736 175.965 62.076V63H176.977V54.838H175.921ZM173.974 62.142C172.852 62.142 172.005 61.328 172.005 60.085C172.005 58.842 172.852 58.039 173.974 58.039C175.085 58.039 175.932 58.842 175.932 60.085C175.932 61.328 175.085 62.142 173.974 62.142ZM180.647 63.066C182.198 63.066 183.166 62.395 183.166 61.339C183.166 59.073 179.47 60.195 179.47 58.82C179.47 58.358 179.921 58.017 180.845 58.017C181.417 58.017 182 58.138 182.528 58.479L182.979 57.643C182.473 57.313 181.615 57.115 180.856 57.115C179.36 57.115 178.425 57.819 178.425 58.864C178.425 61.185 182.11 60.052 182.11 61.361C182.11 61.856 181.703 62.153 180.724 62.153C179.965 62.153 179.173 61.9 178.678 61.548L178.238 62.384C178.722 62.769 179.679 63.066 180.647 63.066ZM189.562 57.115C188.627 57.115 187.758 57.379 187.153 57.863L187.593 58.655C188.044 58.27 188.748 58.028 189.441 58.028C190.486 58.028 191.003 58.545 191.003 59.436V59.645H189.331C187.593 59.645 186.988 60.415 186.988 61.35C186.988 62.362 187.824 63.066 189.144 63.066C190.057 63.066 190.706 62.758 191.058 62.23V63H192.059V59.48C192.059 57.885 191.157 57.115 189.562 57.115ZM189.32 62.252C188.517 62.252 188.033 61.889 188.033 61.306C188.033 60.811 188.33 60.404 189.375 60.404H191.003V61.218C190.739 61.889 190.112 62.252 189.32 62.252ZM197.127 57.115C196.203 57.115 195.455 57.456 195.026 58.05V57.17H194.014V63H195.07V59.997C195.07 58.732 195.796 58.061 196.918 58.061C197.919 58.061 198.491 58.622 198.491 59.766V63H199.547V59.645C199.547 57.929 198.546 57.115 197.127 57.115ZM205.977 54.838V58.05C205.493 57.423 204.767 57.115 203.942 57.115C202.237 57.115 200.994 58.303 200.994 60.085C200.994 61.867 202.237 63.066 203.942 63.066C204.8 63.066 205.548 62.736 206.021 62.076V63H207.033V54.838H205.977ZM204.03 62.142C202.908 62.142 202.061 61.328 202.061 60.085C202.061 58.842 202.908 58.039 204.03 58.039C205.141 58.039 205.988 58.842 205.988 60.085C205.988 61.328 205.141 62.142 204.03 62.142ZM214.119 55.641C214.427 55.641 214.713 55.751 214.933 55.916L215.252 55.113C214.955 54.882 214.515 54.772 214.064 54.772C212.821 54.772 212.139 55.52 212.139 56.653V57.17H211.149V58.039H212.139V63H213.195V58.039H214.867V57.17H213.173V56.664C213.173 55.993 213.492 55.641 214.119 55.641ZM217.879 57.115C216.944 57.115 216.075 57.379 215.47 57.863L215.91 58.655C216.361 58.27 217.065 58.028 217.758 58.028C218.803 58.028 219.32 58.545 219.32 59.436V59.645H217.648C215.91 59.645 215.305 60.415 215.305 61.35C215.305 62.362 216.141 63.066 217.461 63.066C218.374 63.066 219.023 62.758 219.375 62.23V63H220.376V59.48C220.376 57.885 219.474 57.115 217.879 57.115ZM217.637 62.252C216.834 62.252 216.35 61.889 216.35 61.306C216.35 60.811 216.647 60.404 217.692 60.404H219.32V61.218C219.056 61.889 218.429 62.252 217.637 62.252ZM229.623 57.115C228.633 57.115 227.819 57.533 227.379 58.193C226.994 57.467 226.246 57.115 225.355 57.115C224.475 57.115 223.76 57.445 223.342 58.039V57.17H222.33V63H223.386V59.997C223.386 58.732 224.079 58.061 225.135 58.061C226.092 58.061 226.642 58.622 226.642 59.766V63H227.698V59.997C227.698 58.732 228.391 58.061 229.447 58.061C230.404 58.061 230.954 58.622 230.954 59.766V63H232.01V59.645C232.01 57.929 231.042 57.115 229.623 57.115ZM234.481 56.048C234.899 56.048 235.196 55.74 235.196 55.344C235.196 54.97 234.888 54.673 234.481 54.673C234.074 54.673 233.766 54.981 233.766 55.366C233.766 55.751 234.074 56.048 234.481 56.048ZM233.953 63H235.009V57.17H233.953V63ZM237.025 63H238.081V54.838H237.025V63ZM244.223 57.17L242.21 61.834L240.175 57.17H239.075L241.649 62.989L241.462 63.396C241.176 64.067 240.857 64.298 240.351 64.298C239.955 64.298 239.592 64.144 239.306 63.869L238.855 64.661C239.218 65.013 239.79 65.2 240.351 65.2C241.242 65.2 241.913 64.815 242.43 63.583L245.257 57.17H244.223Z" fill="#AFAFBD"/>
<path d="M109 53C105.7 53 103 55.7 103 59C103 62.3 105.7 65 109 65C112.3 65 115 62.3 115 59C115 55.7 112.3 53 109 53ZM112 59.75H108.25V56H109.75V58.25H112V59.75Z" fill="#AFAFBD"/>
<path d="M56.3384 42.6694C54.9211 42.6694 53.793 43.7975 53.793 45.2149C53.793 46.6322 54.9211 47.7603 56.3384 47.7603C57.7557 47.7603 58.8838 46.6322 58.8838 45.2149C58.8838 43.7975 57.7268 42.6694 56.3384 42.6694Z" fill="white"/>
<path d="M58.8264 54.9047L58.7107 54.8179V52.3014C58.7107 51.3469 58.8842 50.4502 59.2313 49.6114C58.4793 48.9172 57.4669 48.4833 56.3388 48.4833C53.9669 48.5122 52 50.4502 52 52.8221V54.1816C53.0124 54.789 54.6033 55.165 56.3099 55.165C57.2066 55.165 58.0743 55.0782 58.8264 54.9047Z" fill="white"/>
<path d="M75.7769 47.7603C77.1942 47.7603 78.3223 46.6322 78.3223 45.2149C78.3223 43.7975 77.1942 42.6694 75.7769 42.6694C74.3595 42.6694 73.2314 43.7975 73.2314 45.2149C73.2314 46.6033 74.3885 47.7603 75.7769 47.7603Z" fill="white"/>
<path d="M73.4044 54.818L73.2887 54.9048C74.0408 55.0783 74.8796 55.194 75.7763 55.194C77.4829 55.194 79.0738 54.818 80.0862 54.2105V52.8511C80.0862 50.4792 78.1482 48.5412 75.7763 48.5412C74.6772 48.5412 73.6648 48.9751 72.8838 49.6693C73.202 50.5081 73.4044 51.4048 73.4044 52.3593V54.818Z" fill="white"/>
<path d="M62.0947 40.9628C62.0947 43.1611 63.8881 44.9255 66.0575 44.9255C68.2269 44.9255 70.0203 43.1322 70.0203 40.9628C70.0203 38.7644 68.2269 37 66.0575 37C63.8881 37 62.0947 38.7644 62.0947 40.9628Z" fill="white"/>
<path d="M72.6814 54.442V52.3304C72.6814 48.6858 69.7021 45.7065 66.0575 45.7065C62.4129 45.7065 59.4336 48.6858 59.4336 52.3304V54.442C60.9666 55.4254 63.4253 56.004 66.0575 56.004C68.6897 56.004 71.1483 55.3965 72.6814 54.442Z" fill="white"/>
<defs>
<filter id="filter0_ddd" x="0" y="0" width="460" height="179" filterUnits="userSpaceOnUse" color-interpolation-filters="sRGB">
<feFlood flood-opacity="0" result="BackgroundImageFix"/>
<feColorMatrix in="SourceAlpha" type="matrix" values="0 0 0 0 0 0 0 0 0 0 0 0 0 0 0 0 0 0 127 0"/>
<feOffset dx="55" dy="65"/>
<feGaussianBlur stdDeviation="10"/>
<feColorMatrix type="matrix" values="0 0 0 0 0.6 0 0 0 0 0.74902 0 0 0 0 0.0941176 0 0 0 0.06 0"/>
<feBlend mode="normal" in2="BackgroundImageFix" result="effect1_dropShadow"/>
<feColorMatrix in="SourceAlpha" type="matrix" values="0 0 0 0 0 0 0 0 0 0 0 0 0 0 0 0 0 0 127 0"/>
<feOffset dx="20" dy="30"/>
<feGaussianBlur stdDeviation="10"/>
<feColorMatrix type="matrix" values="0 0 0 0 0.6 0 0 0 0 0.74902 0 0 0 0 0.0941176 0 0 0 0.06 0"/>
<feBlend mode="normal" in2="effect1_dropShadow" result="effect2_dropShadow"/>
<feColorMatrix in="SourceAlpha" type="matrix" values="0 0 0 0 0 0 0 0 0 0 0 0 0 0 0 0 0 0 127 0"/>
<feOffset dx="10" dy="20"/>
<feGaussianBlur stdDeviation="10"/>
<feColorMatrix type="matrix" values="0 0 0 0 0.6 0 0 0 0 0.74902 0 0 0 0 0.0941176 0 0 0 0.04 0"/>
<feBlend mode="normal" in2="effect2_dropShadow" result="effect3_dropShadow"/>
<feBlend mode="normal" in="SourceGraphic" in2="effect3_dropShadow" result="shape"/>
</filter>
</defs>
</svg>
