<svg width="110" height="107" viewBox="0 0 110 107" fill="none" xmlns="http://www.w3.org/2000/svg">
<path d="M106.743 9.9565L70.043 0L65.991 15.0505C64.4859 14.3559 63.0966 13.5455 61.7074 12.6193C60.6654 11.9246 59.2761 11.4615 57.8868 11.4615C55.3398 11.3458 52.7928 12.8508 51.5193 15.1663C49.2039 19.4499 51.5193 24.3124 55.9187 25.4701C56.6133 25.7017 57.4238 25.7017 58.1184 25.7017C59.7392 25.5859 61.4758 25.7017 63.0966 25.8174L59.0446 40.8679L73.9793 44.92C74.0951 43.415 74.2109 41.7941 74.0951 40.2891C74.0951 39.5944 74.0951 38.784 74.3266 38.0894C75.4844 33.69 80.4626 31.4903 84.6305 33.69C86.9459 34.9635 88.3352 37.3948 88.3352 39.9418C88.3352 41.4468 87.8721 42.7203 87.1775 43.8781C86.3671 45.1516 85.5567 46.5408 84.9778 47.9301L99.9125 51.9822L109.869 15.2821C110.448 12.9666 109.059 10.5354 106.743 9.9565Z" fill="#99BF18"/>
<path d="M14.3559 68.8851C13.8928 70.1586 13.8928 71.4321 14.2401 72.9371C14.819 75.4842 16.9029 77.4523 19.4499 78.0312C24.0808 79.0731 28.2487 75.5999 28.2487 71.0848C28.2487 70.2744 28.1329 69.5797 27.9013 68.8851C27.4383 67.2643 26.9752 65.6434 26.7436 64.0226H42.2572V48.6248C40.7522 48.8563 39.2471 49.2036 37.7421 49.7825C37.0474 50.014 36.3528 50.1298 35.5424 50.1298C31.0272 50.1298 27.554 45.962 28.596 41.3311C29.1749 38.784 31.2588 36.7001 33.69 36.1213C35.0793 35.7739 36.4686 35.8897 37.7421 36.237C39.2471 36.7001 40.7522 37.0474 42.2572 37.3948V21.7654H4.28361C1.85237 21.7654 0 23.7335 0 26.049V64.1384H15.6294C15.2821 65.7592 14.9347 67.2643 14.3559 68.8851Z" fill="#26292B"/>
<path d="M72.9364 59.3917C73.3995 58.1182 73.3995 56.7289 73.0521 55.2238C72.3575 52.7926 70.3894 50.8244 67.8423 50.2456C63.2114 49.2036 59.0436 52.6768 59.0436 57.192C59.0436 58.0024 59.1594 58.697 59.3909 59.3917C59.854 61.0125 60.3171 62.5175 60.5486 64.2541H47.582V73.2844C48.1609 73.1687 48.8555 73.1687 49.4344 73.1687C53.2549 73.1687 56.7281 74.9053 59.0436 77.7996C61.359 80.8097 62.2852 84.6302 61.359 88.335C60.3171 92.6186 56.9597 96.0918 52.5603 97.2495C51.5183 97.481 50.4764 97.7126 49.4344 97.7126C48.8555 97.7126 48.1609 97.7126 47.582 97.5968V106.511H80.4616C82.8929 106.511 84.7452 104.543 84.7452 102.228V64.1384H71.7786C72.0102 62.5175 72.4733 60.8967 72.9364 59.3917Z" fill="#26292B"/>
<path d="M51.2875 92.1555C53.7188 91.4608 55.8027 89.4927 56.3816 87.0614C57.4235 82.4305 53.9503 78.2627 49.4352 78.2627C48.6248 78.2627 47.9301 78.3785 47.2355 78.61C45.6147 79.0731 44.1096 79.5362 42.373 79.7677V69.3481H33.3427C33.4585 69.927 33.4585 70.6216 33.4585 71.2005C33.4585 78.0311 27.9013 83.4725 21.1865 83.4725C20.2603 83.4725 19.2184 83.3567 18.2922 83.1252C13.8928 82.0832 10.4196 78.61 9.26186 74.3264C8.79877 72.7056 8.79877 70.969 9.03031 69.3481H0V102.228C0 104.659 1.96814 106.511 4.28361 106.511H42.373V90.882C43.9938 91.1135 45.6147 91.5766 47.1197 92.0397C48.3932 92.5028 49.8983 92.6186 51.2875 92.1555Z" fill="#26292B"/>
</svg>
