<svg width="720" height="140" viewBox="0 0 720 140" fill="none" xmlns="http://www.w3.org/2000/svg">
<g filter="url(#filter0_ddd)">
<rect x="10" width="660" height="80" rx="40" fill="white"/>
</g>
<path opacity="0.5" d="M600.296 31.084C602.564 31.084 604.216 29.222 604.216 26.1C604.216 22.978 602.564 21.116 600.296 21.116C598.028 21.116 596.39 22.978 596.39 26.1C596.39 29.222 598.028 31.084 600.296 31.084ZM600.296 30.16C598.588 30.16 597.412 28.718 597.412 26.1C597.412 23.482 598.588 22.04 600.296 22.04C602.004 22.04 603.18 23.482 603.18 26.1C603.18 28.718 602.004 30.16 600.296 30.16ZM608.486 25.218H607.226L607.562 22.096H612.042V21.2H606.68L606.176 26.114H608.262C610.754 26.114 611.538 26.898 611.538 28.158C611.538 29.348 610.656 30.16 608.99 30.16C607.73 30.16 606.61 29.684 605.98 29.026L605.49 29.824C606.246 30.594 607.59 31.084 609.004 31.084C611.398 31.084 612.56 29.782 612.56 28.116C612.56 26.38 611.44 25.218 608.486 25.218ZM614.845 25.106C615.251 25.106 615.601 24.77 615.601 24.336C615.601 23.902 615.251 23.58 614.845 23.58C614.439 23.58 614.103 23.902 614.103 24.336C614.103 24.77 614.439 25.106 614.845 25.106ZM614.845 31.07C615.251 31.07 615.601 30.734 615.601 30.3C615.601 29.866 615.251 29.544 614.845 29.544C614.439 29.544 614.103 29.866 614.103 30.3C614.103 30.734 614.439 31.07 614.845 31.07ZM618.608 30.104L621.94 26.828C623.256 25.54 623.55 24.7 623.55 23.762C623.55 22.124 622.29 21.116 620.302 21.116C618.804 21.116 617.586 21.62 616.83 22.516L617.544 23.132C618.188 22.39 619.07 22.04 620.218 22.04C621.716 22.04 622.514 22.74 622.514 23.874C622.514 24.546 622.304 25.204 621.198 26.296L617.124 30.286V31H623.998V30.104H618.608ZM629.364 31.084C631.632 31.084 633.284 29.222 633.284 26.1C633.284 22.978 631.632 21.116 629.364 21.116C627.096 21.116 625.458 22.978 625.458 26.1C625.458 29.222 627.096 31.084 629.364 31.084ZM629.364 30.16C627.656 30.16 626.48 28.718 626.48 26.1C626.48 23.482 627.656 22.04 629.364 22.04C631.072 22.04 632.248 23.482 632.248 26.1C632.248 28.718 631.072 30.16 629.364 30.16Z" fill="white"/>
<path d="M119.303 31.152L113.471 42.432V48H109.367V42.432L103.535 31.152H108.191L111.455 38.208L114.695 31.152H119.303ZM127.053 48.192C125.741 48.192 124.557 47.912 123.501 47.352C122.461 46.792 121.637 45.992 121.029 44.952C120.437 43.912 120.141 42.696 120.141 41.304C120.141 39.928 120.445 38.72 121.053 37.68C121.661 36.624 122.493 35.816 123.549 35.256C124.605 34.696 125.789 34.416 127.101 34.416C128.413 34.416 129.597 34.696 130.653 35.256C131.709 35.816 132.541 36.624 133.149 37.68C133.757 38.72 134.061 39.928 134.061 41.304C134.061 42.68 133.749 43.896 133.125 44.952C132.517 45.992 131.677 46.792 130.605 47.352C129.549 47.912 128.365 48.192 127.053 48.192ZM127.053 44.64C127.837 44.64 128.501 44.352 129.045 43.776C129.605 43.2 129.885 42.376 129.885 41.304C129.885 40.232 129.613 39.408 129.069 38.832C128.541 38.256 127.885 37.968 127.101 37.968C126.301 37.968 125.637 38.256 125.109 38.832C124.581 39.392 124.317 40.216 124.317 41.304C124.317 42.376 124.573 43.2 125.085 43.776C125.613 44.352 126.269 44.64 127.053 44.64ZM149.462 34.608V48H145.358V46.176C144.942 46.768 144.374 47.248 143.654 47.616C142.95 47.968 142.166 48.144 141.302 48.144C140.278 48.144 139.374 47.92 138.59 47.472C137.806 47.008 137.198 46.344 136.766 45.48C136.334 44.616 136.118 43.6 136.118 42.432V34.608H140.198V41.88C140.198 42.776 140.43 43.472 140.894 43.968C141.358 44.464 141.982 44.712 142.766 44.712C143.566 44.712 144.198 44.464 144.662 43.968C145.126 43.472 145.358 42.776 145.358 41.88V34.608H149.462ZM156.514 36.84C156.994 36.104 157.594 35.528 158.314 35.112C159.034 34.68 159.834 34.464 160.714 34.464V38.808H159.586C158.562 38.808 157.794 39.032 157.282 39.48C156.77 39.912 156.514 40.68 156.514 41.784V48H152.41V34.608H156.514V36.84ZM173.857 48.192C172.545 48.192 171.361 47.912 170.305 47.352C169.265 46.792 168.441 45.992 167.833 44.952C167.241 43.912 166.945 42.696 166.945 41.304C166.945 39.928 167.249 38.72 167.857 37.68C168.465 36.624 169.297 35.816 170.353 35.256C171.409 34.696 172.593 34.416 173.905 34.416C175.217 34.416 176.401 34.696 177.457 35.256C178.513 35.816 179.345 36.624 179.953 37.68C180.561 38.72 180.865 39.928 180.865 41.304C180.865 42.68 180.553 43.896 179.929 44.952C179.321 45.992 178.481 46.792 177.409 47.352C176.353 47.912 175.169 48.192 173.857 48.192ZM173.857 44.64C174.641 44.64 175.305 44.352 175.849 43.776C176.409 43.2 176.689 42.376 176.689 41.304C176.689 40.232 176.417 39.408 175.873 38.832C175.345 38.256 174.689 37.968 173.905 37.968C173.105 37.968 172.441 38.256 171.913 38.832C171.385 39.392 171.121 40.216 171.121 41.304C171.121 42.376 171.377 43.2 171.889 43.776C172.417 44.352 173.073 44.64 173.857 44.64ZM191.203 34.464C192.771 34.464 194.019 34.976 194.947 36C195.891 37.008 196.363 38.4 196.363 40.176V48H192.283V40.728C192.283 39.832 192.051 39.136 191.587 38.64C191.123 38.144 190.499 37.896 189.715 37.896C188.931 37.896 188.307 38.144 187.843 38.64C187.379 39.136 187.147 39.832 187.147 40.728V48H183.043V34.608H187.147V36.384C187.563 35.792 188.123 35.328 188.827 34.992C189.531 34.64 190.323 34.464 191.203 34.464ZM211.839 41.088C211.839 41.472 211.815 41.872 211.767 42.288H202.479C202.543 43.12 202.807 43.76 203.271 44.208C203.751 44.64 204.335 44.856 205.023 44.856C206.047 44.856 206.759 44.424 207.159 43.56H211.527C211.303 44.44 210.895 45.232 210.303 45.936C209.727 46.64 208.999 47.192 208.119 47.592C207.239 47.992 206.255 48.192 205.167 48.192C203.855 48.192 202.687 47.912 201.663 47.352C200.639 46.792 199.839 45.992 199.263 44.952C198.687 43.912 198.399 42.696 198.399 41.304C198.399 39.912 198.679 38.696 199.239 37.656C199.815 36.616 200.615 35.816 201.639 35.256C202.663 34.696 203.839 34.416 205.167 34.416C206.463 34.416 207.615 34.688 208.623 35.232C209.631 35.776 210.415 36.552 210.975 37.56C211.551 38.568 211.839 39.744 211.839 41.088ZM207.639 40.008C207.639 39.304 207.399 38.744 206.919 38.328C206.439 37.912 205.839 37.704 205.119 37.704C204.431 37.704 203.847 37.904 203.367 38.304C202.903 38.704 202.615 39.272 202.503 40.008H207.639ZM224.538 48.192C223.37 48.192 222.33 47.992 221.418 47.592C220.506 47.192 219.786 46.648 219.258 45.96C218.73 45.256 218.434 44.472 218.37 43.608H222.426C222.474 44.072 222.69 44.448 223.074 44.736C223.458 45.024 223.93 45.168 224.49 45.168C225.002 45.168 225.394 45.072 225.666 44.88C225.954 44.672 226.098 44.408 226.098 44.088C226.098 43.704 225.898 43.424 225.498 43.248C225.098 43.056 224.45 42.848 223.554 42.624C222.594 42.4 221.794 42.168 221.154 41.928C220.514 41.672 219.962 41.28 219.498 40.752C219.034 40.208 218.802 39.48 218.802 38.568C218.802 37.8 219.01 37.104 219.426 36.48C219.858 35.84 220.482 35.336 221.298 34.968C222.13 34.6 223.114 34.416 224.25 34.416C225.93 34.416 227.25 34.832 228.21 35.664C229.186 36.496 229.746 37.6 229.89 38.976H226.098C226.034 38.512 225.826 38.144 225.474 37.872C225.138 37.6 224.69 37.464 224.13 37.464C223.65 37.464 223.282 37.56 223.026 37.752C222.77 37.928 222.642 38.176 222.642 38.496C222.642 38.88 222.842 39.168 223.242 39.36C223.658 39.552 224.298 39.744 225.162 39.936C226.154 40.192 226.962 40.448 227.586 40.704C228.21 40.944 228.754 41.344 229.218 41.904C229.698 42.448 229.946 43.184 229.962 44.112C229.962 44.896 229.738 45.6 229.29 46.224C228.858 46.832 228.226 47.312 227.394 47.664C226.578 48.016 225.626 48.192 224.538 48.192ZM239.936 44.52V48H237.848C236.36 48 235.2 47.64 234.368 46.92C233.536 46.184 233.12 44.992 233.12 43.344V38.016H231.488V34.608H233.12V31.344H237.224V34.608H239.912V38.016H237.224V43.392C237.224 43.792 237.32 44.08 237.512 44.256C237.704 44.432 238.024 44.52 238.472 44.52H239.936ZM248.318 48.192C247.006 48.192 245.822 47.912 244.766 47.352C243.726 46.792 242.902 45.992 242.294 44.952C241.702 43.912 241.406 42.696 241.406 41.304C241.406 39.928 241.71 38.72 242.318 37.68C242.926 36.624 243.758 35.816 244.814 35.256C245.87 34.696 247.054 34.416 248.366 34.416C249.678 34.416 250.862 34.696 251.918 35.256C252.974 35.816 253.806 36.624 254.414 37.68C255.022 38.72 255.326 39.928 255.326 41.304C255.326 42.68 255.014 43.896 254.39 44.952C253.782 45.992 252.942 46.792 251.87 47.352C250.814 47.912 249.63 48.192 248.318 48.192ZM248.318 44.64C249.102 44.64 249.766 44.352 250.31 43.776C250.87 43.2 251.15 42.376 251.15 41.304C251.15 40.232 250.878 39.408 250.334 38.832C249.806 38.256 249.15 37.968 248.366 37.968C247.566 37.968 246.902 38.256 246.374 38.832C245.846 39.392 245.582 40.216 245.582 41.304C245.582 42.376 245.838 43.2 246.35 43.776C246.878 44.352 247.534 44.64 248.318 44.64ZM261.608 36.504C262.008 35.88 262.56 35.376 263.264 34.992C263.968 34.608 264.792 34.416 265.736 34.416C266.84 34.416 267.84 34.696 268.736 35.256C269.632 35.816 270.336 36.616 270.848 37.656C271.376 38.696 271.64 39.904 271.64 41.28C271.64 42.656 271.376 43.872 270.848 44.928C270.336 45.968 269.632 46.776 268.736 47.352C267.84 47.912 266.84 48.192 265.736 48.192C264.808 48.192 263.984 48 263.264 47.616C262.56 47.232 262.008 46.736 261.608 46.128V54.384H257.504V34.608H261.608V36.504ZM267.464 41.28C267.464 40.256 267.176 39.456 266.6 38.88C266.04 38.288 265.344 37.992 264.512 37.992C263.696 37.992 263 38.288 262.424 38.88C261.864 39.472 261.584 40.28 261.584 41.304C261.584 42.328 261.864 43.136 262.424 43.728C263 44.32 263.696 44.616 264.512 44.616C265.328 44.616 266.024 44.32 266.6 43.728C267.176 43.12 267.464 42.304 267.464 41.28ZM285.599 38.016H283.391V48H279.287V38.016H277.799V34.608H279.287V34.224C279.287 32.576 279.759 31.328 280.703 30.48C281.647 29.616 283.031 29.184 284.855 29.184C285.159 29.184 285.383 29.192 285.527 29.208V32.688C284.743 32.64 284.191 32.752 283.871 33.024C283.551 33.296 283.391 33.784 283.391 34.488V34.608H285.599V38.016ZM289.591 33.216C288.871 33.216 288.279 33.008 287.815 32.592C287.367 32.16 287.143 31.632 287.143 31.008C287.143 30.368 287.367 29.84 287.815 29.424C288.279 28.992 288.871 28.776 289.591 28.776C290.295 28.776 290.871 28.992 291.319 29.424C291.783 29.84 292.015 30.368 292.015 31.008C292.015 31.632 291.783 32.16 291.319 32.592C290.871 33.008 290.295 33.216 289.591 33.216ZM291.631 34.608V48H287.527V34.608H291.631ZM302.765 34.464C304.333 34.464 305.581 34.976 306.509 36C307.453 37.008 307.925 38.4 307.925 40.176V48H303.845V40.728C303.845 39.832 303.613 39.136 303.149 38.64C302.685 38.144 302.061 37.896 301.277 37.896C300.493 37.896 299.869 38.144 299.405 38.64C298.941 39.136 298.709 39.832 298.709 40.728V48H294.605V34.608H298.709V36.384C299.125 35.792 299.685 35.328 300.389 34.992C301.093 34.64 301.885 34.464 302.765 34.464ZM309.961 41.28C309.961 39.904 310.217 38.696 310.729 37.656C311.257 36.616 311.969 35.816 312.865 35.256C313.761 34.696 314.761 34.416 315.865 34.416C316.809 34.416 317.633 34.608 318.337 34.992C319.057 35.376 319.609 35.88 319.993 36.504V34.608H324.097V48H319.993V46.104C319.593 46.728 319.033 47.232 318.313 47.616C317.609 48 316.785 48.192 315.841 48.192C314.753 48.192 313.761 47.912 312.865 47.352C311.969 46.776 311.257 45.968 310.729 44.928C310.217 43.872 309.961 42.656 309.961 41.28ZM319.993 41.304C319.993 40.28 319.705 39.472 319.129 38.88C318.569 38.288 317.881 37.992 317.065 37.992C316.249 37.992 315.553 38.288 314.977 38.88C314.417 39.456 314.137 40.256 314.137 41.28C314.137 42.304 314.417 43.12 314.977 43.728C315.553 44.32 316.249 44.616 317.065 44.616C317.881 44.616 318.569 44.32 319.129 43.728C319.705 43.136 319.993 42.328 319.993 41.304ZM335.226 34.464C336.794 34.464 338.042 34.976 338.97 36C339.914 37.008 340.386 38.4 340.386 40.176V48H336.306V40.728C336.306 39.832 336.074 39.136 335.61 38.64C335.146 38.144 334.522 37.896 333.738 37.896C332.954 37.896 332.33 38.144 331.866 38.64C331.402 39.136 331.17 39.832 331.17 40.728V48H327.066V34.608H331.17V36.384C331.586 35.792 332.146 35.328 332.85 34.992C333.554 34.64 334.346 34.464 335.226 34.464ZM342.422 41.304C342.422 39.912 342.702 38.696 343.262 37.656C343.838 36.616 344.63 35.816 345.638 35.256C346.662 34.696 347.83 34.416 349.142 34.416C350.822 34.416 352.222 34.856 353.342 35.736C354.478 36.616 355.222 37.856 355.574 39.456H351.206C350.838 38.432 350.126 37.92 349.07 37.92C348.318 37.92 347.718 38.216 347.27 38.808C346.822 39.384 346.598 40.216 346.598 41.304C346.598 42.392 346.822 43.232 347.27 43.824C347.718 44.4 348.318 44.688 349.07 44.688C350.126 44.688 350.838 44.176 351.206 43.152H355.574C355.222 44.72 354.478 45.952 353.342 46.848C352.206 47.744 350.806 48.192 349.142 48.192C347.83 48.192 346.662 47.912 345.638 47.352C344.63 46.792 343.838 45.992 343.262 44.952C342.702 43.912 342.422 42.696 342.422 41.304ZM359.833 33.216C359.113 33.216 358.521 33.008 358.057 32.592C357.609 32.16 357.385 31.632 357.385 31.008C357.385 30.368 357.609 29.84 358.057 29.424C358.521 28.992 359.113 28.776 359.833 28.776C360.537 28.776 361.113 28.992 361.561 29.424C362.025 29.84 362.257 30.368 362.257 31.008C362.257 31.632 362.025 32.16 361.561 32.592C361.113 33.008 360.537 33.216 359.833 33.216ZM361.873 34.608V48H357.769V34.608H361.873ZM364.031 41.28C364.031 39.904 364.287 38.696 364.799 37.656C365.327 36.616 366.039 35.816 366.935 35.256C367.831 34.696 368.831 34.416 369.935 34.416C370.879 34.416 371.703 34.608 372.407 34.992C373.127 35.376 373.679 35.88 374.063 36.504V34.608H378.167V48H374.063V46.104C373.663 46.728 373.103 47.232 372.383 47.616C371.679 48 370.855 48.192 369.911 48.192C368.823 48.192 367.831 47.912 366.935 47.352C366.039 46.776 365.327 45.968 364.799 44.928C364.287 43.872 364.031 42.656 364.031 41.28ZM374.063 41.304C374.063 40.28 373.775 39.472 373.199 38.88C372.639 38.288 371.951 37.992 371.135 37.992C370.319 37.992 369.623 38.288 369.047 38.88C368.487 39.456 368.207 40.256 368.207 41.28C368.207 42.304 368.487 43.12 369.047 43.728C369.623 44.32 370.319 44.616 371.135 44.616C371.951 44.616 372.639 44.32 373.199 43.728C373.775 43.136 374.063 42.328 374.063 41.304ZM385.24 30.24V48H381.136V30.24H385.24ZM397.405 36.504C397.805 35.88 398.357 35.376 399.061 34.992C399.765 34.608 400.589 34.416 401.533 34.416C402.637 34.416 403.637 34.696 404.533 35.256C405.429 35.816 406.133 36.616 406.645 37.656C407.173 38.696 407.437 39.904 407.437 41.28C407.437 42.656 407.173 43.872 406.645 44.928C406.133 45.968 405.429 46.776 404.533 47.352C403.637 47.912 402.637 48.192 401.533 48.192C400.605 48.192 399.781 48 399.061 47.616C398.357 47.232 397.805 46.736 397.405 46.128V54.384H393.301V34.608H397.405V36.504ZM403.261 41.28C403.261 40.256 402.973 39.456 402.397 38.88C401.837 38.288 401.141 37.992 400.309 37.992C399.493 37.992 398.797 38.288 398.221 38.88C397.661 39.472 397.381 40.28 397.381 41.304C397.381 42.328 397.661 43.136 398.221 43.728C398.797 44.32 399.493 44.616 400.309 44.616C401.125 44.616 401.821 44.32 402.397 43.728C402.973 43.12 403.261 42.304 403.261 41.28ZM408.774 41.28C408.774 39.904 409.03 38.696 409.542 37.656C410.07 36.616 410.782 35.816 411.678 35.256C412.574 34.696 413.574 34.416 414.678 34.416C415.622 34.416 416.446 34.608 417.15 34.992C417.87 35.376 418.422 35.88 418.806 36.504V34.608H422.91V48H418.806V46.104C418.406 46.728 417.846 47.232 417.126 47.616C416.422 48 415.598 48.192 414.654 48.192C413.566 48.192 412.574 47.912 411.678 47.352C410.782 46.776 410.07 45.968 409.542 44.928C409.03 43.872 408.774 42.656 408.774 41.28ZM418.806 41.304C418.806 40.28 418.518 39.472 417.942 38.88C417.382 38.288 416.694 37.992 415.878 37.992C415.062 37.992 414.366 38.288 413.79 38.88C413.23 39.456 412.95 40.256 412.95 41.28C412.95 42.304 413.23 43.12 413.79 43.728C414.366 44.32 415.062 44.616 415.878 44.616C416.694 44.616 417.382 44.32 417.942 43.728C418.518 43.136 418.806 42.328 418.806 41.304ZM429.983 36.84C430.463 36.104 431.063 35.528 431.783 35.112C432.503 34.68 433.303 34.464 434.183 34.464V38.808H433.055C432.031 38.808 431.263 39.032 430.751 39.48C430.239 39.912 429.983 40.68 429.983 41.784V48H425.879V34.608H429.983V36.84ZM443.608 44.52V48H441.52C440.032 48 438.872 47.64 438.04 46.92C437.208 46.184 436.792 44.992 436.792 43.344V38.016H435.16V34.608H436.792V31.344H440.896V34.608H443.584V38.016H440.896V43.392C440.896 43.792 440.992 44.08 441.184 44.256C441.376 44.432 441.696 44.52 442.144 44.52H443.608ZM454.054 34.464C455.622 34.464 456.87 34.976 457.798 36C458.742 37.008 459.214 38.4 459.214 40.176V48H455.134V40.728C455.134 39.832 454.902 39.136 454.438 38.64C453.974 38.144 453.35 37.896 452.566 37.896C451.782 37.896 451.158 38.144 450.694 38.64C450.23 39.136 449.998 39.832 449.998 40.728V48H445.894V34.608H449.998V36.384C450.414 35.792 450.974 35.328 451.678 34.992C452.382 34.64 453.174 34.464 454.054 34.464ZM474.69 41.088C474.69 41.472 474.666 41.872 474.618 42.288H465.33C465.394 43.12 465.658 43.76 466.122 44.208C466.602 44.64 467.186 44.856 467.874 44.856C468.898 44.856 469.61 44.424 470.01 43.56H474.378C474.154 44.44 473.746 45.232 473.154 45.936C472.578 46.64 471.85 47.192 470.97 47.592C470.09 47.992 469.106 48.192 468.018 48.192C466.706 48.192 465.538 47.912 464.514 47.352C463.49 46.792 462.69 45.992 462.114 44.952C461.538 43.912 461.25 42.696 461.25 41.304C461.25 39.912 461.53 38.696 462.09 37.656C462.666 36.616 463.466 35.816 464.49 35.256C465.514 34.696 466.69 34.416 468.018 34.416C469.314 34.416 470.466 34.688 471.474 35.232C472.482 35.776 473.266 36.552 473.826 37.56C474.402 38.568 474.69 39.744 474.69 41.088ZM470.49 40.008C470.49 39.304 470.25 38.744 469.77 38.328C469.29 37.912 468.69 37.704 467.97 37.704C467.282 37.704 466.698 37.904 466.218 38.304C465.754 38.704 465.466 39.272 465.354 40.008H470.49ZM480.959 36.84C481.439 36.104 482.039 35.528 482.759 35.112C483.479 34.68 484.279 34.464 485.159 34.464V38.808H484.031C483.007 38.808 482.239 39.032 481.727 39.48C481.215 39.912 480.959 40.68 480.959 41.784V48H476.855V34.608H480.959V36.84Z" fill="#263238"/>
<circle cx="50" cy="40" r="24" fill="#99BF18"/>
<path d="M50 40C52.21 40 54 38.21 54 36C54 33.79 52.21 32 50 32C47.79 32 46 33.79 46 36C46 38.21 47.79 40 50 40ZM50 42C47.33 42 42 43.34 42 46V48H58V46C58 43.34 52.67 42 50 42Z" fill="white"/>
<defs>
<filter id="filter0_ddd" x="0" y="0" width="720" height="140" filterUnits="userSpaceOnUse" color-interpolation-filters="sRGB">
<feFlood flood-opacity="0" result="BackgroundImageFix"/>
<feColorMatrix in="SourceAlpha" type="matrix" values="0 0 0 0 0 0 0 0 0 0 0 0 0 0 0 0 0 0 127 0"/>
<feOffset dx="20" dy="30"/>
<feGaussianBlur stdDeviation="15"/>
<feColorMatrix type="matrix" values="0 0 0 0 0.6 0 0 0 0 0.74902 0 0 0 0 0.0941176 0 0 0 0.06 0"/>
<feBlend mode="normal" in2="BackgroundImageFix" result="effect1_dropShadow"/>
<feColorMatrix in="SourceAlpha" type="matrix" values="0 0 0 0 0 0 0 0 0 0 0 0 0 0 0 0 0 0 127 0"/>
<feOffset dx="10" dy="20"/>
<feGaussianBlur stdDeviation="10"/>
<feColorMatrix type="matrix" values="0 0 0 0 0.6 0 0 0 0 0.74902 0 0 0 0 0.0941176 0 0 0 0.02 0"/>
<feBlend mode="normal" in2="effect1_dropShadow" result="effect2_dropShadow"/>
<feColorMatrix in="SourceAlpha" type="matrix" values="0 0 0 0 0 0 0 0 0 0 0 0 0 0 0 0 0 0 127 0"/>
<feOffset dx="1" dy="10"/>
<feGaussianBlur stdDeviation="5"/>
<feColorMatrix type="matrix" values="0 0 0 0 0.4 0 0 0 0 0.244444 0 0 0 0 0.2 0 0 0 0.02 0"/>
<feBlend mode="normal" in2="effect2_dropShadow" result="effect3_dropShadow"/>
<feBlend mode="normal" in="SourceGraphic" in2="effect3_dropShadow" result="shape"/>
</filter>
</defs>
</svg>
