<svg width="106" height="110" viewBox="0 0 106 110" fill="none" xmlns="http://www.w3.org/2000/svg">
<path d="M3.5347 3.52502C1.18221 3.52502 1.15249 7.04423 3.5347 7.05347H10.5455C12.9708 7.06859 15.391 7.71624 17.57 9.00186C22.0198 11.6272 24.7119 16.4262 24.7119 21.6629V23.873L21.3358 20.4271C20.9663 20.0364 20.4548 19.8549 19.9185 19.9004C18.4691 20.0356 17.7565 21.7782 18.808 22.885L25.2222 29.4427C25.9152 30.1522 27.057 30.1522 27.75 29.4427L34.1607 22.885C35.7436 21.1604 33.3391 18.7929 31.633 20.4271L28.2431 23.8867V21.6629C28.2431 15.1528 24.8739 9.20597 19.3701 5.95879C16.646 4.35157 13.6055 3.54126 10.5524 3.52502H3.5347ZM63.5625 3.52502C50.8858 3.52502 40.6094 13.7833 40.6094 26.4375C40.61 33.2525 43.6497 39.7135 48.903 44.066L78.2117 44.0764C83.4716 39.7235 86.5155 33.2578 86.5156 26.4375C86.5156 13.7833 76.2392 3.52502 63.5625 3.52502ZM63.5418 8.84351C64.5386 8.83178 65.3281 9.61043 65.3281 10.606V12.3375H67.9697C70.3767 12.2842 70.3767 15.9158 67.9697 15.8625H65.3247L65.3281 22.9676C68.8601 23.4212 71.5044 26.3937 71.5044 29.966C71.5044 33.6072 68.792 36.5206 65.3281 36.9643V38.7991C65.3281 41.1468 61.7969 41.1634 61.7969 38.7991V37.0194H59.0553C56.6989 37.0194 56.6989 33.491 59.0553 33.491H61.7969V26.3859C58.2641 25.949 55.6137 22.9599 55.6137 19.3875C55.6137 15.8152 58.266 12.8449 61.7969 12.3926V10.606C61.7969 9.63321 62.5612 8.85489 63.5418 8.84351ZM61.7934 15.9761C60.2555 16.3597 59.1484 17.7549 59.1484 19.3875C59.1484 20.9995 60.2382 22.4222 61.7969 22.7989L61.7934 15.9761ZM65.3281 26.5511V33.3739C66.5851 33.0948 67.9766 31.8478 67.9766 29.966C67.9766 28.3321 66.8679 26.9335 65.3281 26.5511ZM88.5227 35.25C87.3725 38.4937 85.5759 41.4815 83.2534 44.066C84.3419 44.066 85.4306 44.066 86.5191 44.066C91.4345 44.066 95.3403 48.0234 95.3403 52.875V66.9682H99.7544C101.283 66.9682 102.413 65.8534 102.413 64.3278C102.382 62.385 103.933 60.7838 105.879 60.7478C105.898 60.7487 105.918 60.7499 105.938 60.7513V42.3C105.938 38.3943 102.788 35.25 98.8751 35.25H88.5227ZM26.4844 37.016C24.4975 37.016 22.9531 38.5989 22.9531 40.541C22.9531 42.483 24.5182 44.066 26.4844 44.066C32.2787 44.066 38.0735 44.066 43.8682 44.066C41.9776 41.9591 40.4462 39.583 39.3231 37.016H26.4844ZM19.4219 40.541V72.2625H37.0781C39.9821 72.2625 42.3716 74.6513 42.3716 77.55V82.8375C42.3716 83.4548 42.2424 84.0407 42.0439 84.5932H51.1962C54.1002 84.5932 56.5034 86.9922 56.5034 89.891V95.175C56.5034 98.0738 54.1002 100.456 51.1962 100.456H42.0405C42.2424 101.013 42.2508 101.618 42.375 102.228V107.516H86.5191C89.4256 107.516 91.8091 105.178 91.8091 102.218V88.125H79.4531C75.6016 88.125 72.3906 84.9163 72.3906 81.0716V74.0182C72.3906 70.1734 75.6016 66.9682 79.4531 66.9682H91.8091V52.875C91.8091 49.9566 89.4841 47.5944 86.5191 47.5944C66.5087 47.5944 46.4948 47.5944 26.4844 47.5944C22.6023 47.5944 19.4219 44.4162 19.4219 40.541ZM105.938 64.3278C105.938 67.7453 103.181 70.4966 99.7578 70.4966H79.4531C77.4968 70.4966 75.9219 72.0687 75.9219 74.0216V81.0716C75.9219 83.0245 77.4968 84.5966 79.4531 84.5966H99.7578C103.181 84.5966 105.938 81.8453 105.938 78.4278V64.3278ZM1.75873 75.7772C0.750032 75.7772 0 76.5466 0 77.5535V82.8444C0 83.8513 0.750032 84.6 1.75873 84.6H3.53125V75.7772H1.75873ZM7.0625 75.7772V84.6H10.5938V75.7772H7.0625ZM14.125 75.7772V84.6H17.6562V75.7772H14.125ZM82.9844 75.7839C83.9595 75.7839 84.75 76.573 84.75 77.5464C84.75 78.5198 83.9595 79.3089 82.9844 79.3089C82.0092 79.3089 81.2188 78.5198 81.2188 77.5464C81.2188 76.573 82.0092 75.7839 82.9844 75.7839ZM21.1841 75.7873V84.5895H21.1875V84.593H21.1944V84.5895H24.7153V75.7873H21.1841ZM28.25 75.7873V84.5895H31.7813V75.7873H28.25ZM35.3125 75.7873V84.5895H37.085C38.0937 84.5895 38.8438 83.8408 38.8438 82.8339V77.5429C38.8438 76.536 38.0937 75.7873 37.085 75.7873H35.3125ZM105.938 85.8737C104.252 87.2744 102.093 88.125 99.7544 88.125H95.3403V98.7H98.875C102.788 98.7 105.938 95.5557 105.938 91.65V85.8737ZM15.8837 88.125C14.875 88.125 14.125 88.891 14.125 89.8979V95.1854C14.125 96.1923 14.875 96.941 15.8837 96.941H17.6562V88.125H15.8837ZM21.1875 88.125V96.941H24.7188V88.125H21.1875ZM28.2431 88.125V96.9375H31.7778V88.125H28.2431ZM35.3091 88.125V96.9375H38.8403V88.125H35.3091ZM42.3716 88.125V96.9375H45.9062V88.125H42.3716ZM49.4375 88.125V96.9375H51.1962C52.2049 96.9375 52.9688 96.1888 52.9688 95.1819V89.8944C52.9688 88.8875 52.2049 88.125 51.1962 88.125H49.4375ZM1.41043 100.397C0.621207 100.39 0 101.358 0 102.239V107.519C0 108.526 0.750032 109.275 1.75873 109.275H3.53125V100.463H1.75873C1.6405 100.419 1.52318 100.398 1.41043 100.397ZM7.0625 100.462V109.275H10.5938V100.463L7.0625 100.462ZM14.125 100.462V109.275H17.6562V100.463L14.125 100.462ZM21.1875 100.462V109.275H24.7188V100.463L21.1875 100.462ZM28.25 100.462V109.275H31.7813V100.463L28.25 100.462ZM35.3125 100.462V109.275H37.085C38.0937 109.275 38.8438 108.523 38.8438 107.516V102.235C38.8438 101.228 38.0937 100.463 37.085 100.463L35.3125 100.462Z" fill="#26292B"/>
<ellipse rx="22.4716" ry="22.4318" transform="matrix(1 0 0 -1 62.5985 22.4318)" fill="white"/>
<path d="M63.2407 1.28186C51.1837 1.28186 41.4111 11.0371 41.4111 23.0728C41.4111 35.1084 51.1837 44.8637 63.2407 44.8637C75.2976 44.8637 85.0702 35.1084 85.0702 23.0728C85.0702 11.0371 75.2976 1.28186 63.2407 1.28186ZM69.5668 31.6624C68.3565 32.7318 66.6163 33.3911 64.3347 33.6429V37.3464H62.0616V33.7447C59.2358 33.6994 56.9174 33.2666 55.1035 32.4489V28.8473C56.0842 29.3254 57.2292 29.7243 58.5386 30.0497C59.8481 30.3751 61.0243 30.542 62.0588 30.5533V24.1705L60.6218 23.6415C58.7512 22.9256 57.3879 22.0684 56.5263 21.0725C55.6647 20.0766 55.2339 18.8459 55.2339 17.3775C55.2339 15.8072 55.8461 14.5171 57.0733 13.5042C58.3005 12.4914 59.9586 11.8774 62.0559 11.6624V8.79636H64.329V11.6115C66.6418 11.6907 68.8355 12.1575 70.9102 13.0119L69.6603 16.1354C67.8719 15.431 66.0948 15.0094 64.329 14.8736V21.0838L65.6271 21.5789C67.7925 22.4107 69.2918 23.285 70.1223 24.2073C70.9556 25.1296 71.3694 26.2557 71.3694 27.5854C71.3779 29.2349 70.7742 30.5929 69.5668 31.6624Z" fill="#99BF18"/>
</svg>
