<svg width="90" height="107" viewBox="0 0 90 107" fill="none" xmlns="http://www.w3.org/2000/svg">
<path d="M13.9948 4.29083C6.26618 4.29083 0 10.557 0 18.2856C0 26.0142 6.26618 32.2804 13.9948 32.2804C21.7246 32.2804 27.9896 26.0142 27.9896 18.2856C27.9896 10.5558 21.7234 4.29083 13.9948 4.29083ZM16.2961 15.5904V17.3872H10.8034L10.7796 17.912V18.5534L10.8034 19.0079H15.5619V20.7928H11.0009C11.4995 23.2191 12.9143 24.4328 15.2466 24.4328C16.3592 24.4328 17.4991 24.1924 18.6653 23.7093V26.0773C17.6467 26.5521 16.4603 26.7889 15.1074 26.7889C13.2332 26.7889 11.7101 26.276 10.5404 25.2491C9.37072 24.2234 8.60559 22.7383 8.24742 20.7928H6.47442V19.0079H8.0606L8.03799 18.576V18.144L8.0606 17.386H6.47442V15.5892H8.22481C8.51991 13.6377 9.26243 12.1063 10.4524 10.9937C11.6423 9.88113 13.1785 9.32543 15.061 9.32543C16.6162 9.32543 18.0072 9.66814 19.2364 10.3523L18.2571 12.5335C17.0589 11.9421 15.9927 11.647 15.061 11.647C13.9639 11.647 13.0666 11.973 12.3717 12.6263C11.6756 13.2796 11.2115 14.2672 10.9783 15.5892H16.2961V15.5904Z" fill="#99BF18"/>
<path d="M48.6733 15.2621C52.8556 15.2621 56.246 11.8455 56.246 7.63103C56.246 3.41653 52.8556 0 48.6733 0C44.491 0 41.1006 3.41653 41.1006 7.63103C41.1006 11.8455 44.491 15.2621 48.6733 15.2621Z" fill="#26292B"/>
<path d="M84.5464 33.4835L75.4446 33.4847L66.6522 36.5607L62.8111 17.9156H48.3892H48.3582H33.9374L30.0963 36.5607L21.3039 33.4847L12.2021 33.4835L12.6508 35.2422L18.3327 36.3679L18.3315 36.3691L18.3327 36.3703L18.3315 36.3858L18.3446 36.3763L33.8387 44.7284L38.2105 36.4476L34.5764 106.506H41.4899L48.3737 62.9177L55.2575 106.506H62.1721L58.5381 36.4476L62.9087 44.7284L78.404 36.3763L78.4159 36.3858V36.3703V36.3691L84.0978 35.2422L84.5464 33.4835Z" fill="#26292B"/>
<path d="M80.1736 13.8449C75.1117 13.8449 71.0088 17.9478 71.0088 23.0098C71.0088 28.0717 75.1117 32.1746 80.1736 32.1746C85.2356 32.1746 89.3385 28.0717 89.3385 23.0098C89.3385 17.9478 85.2356 13.8449 80.1736 13.8449ZM82.8296 26.6224C82.3215 27.0722 81.5909 27.3495 80.633 27.4554V29.013H79.6786V27.4982C78.4923 27.4792 77.5189 27.2971 76.7574 26.9532V25.4384C77.1691 25.6395 77.6498 25.8073 78.1995 25.9441C78.7493 26.081 79.2431 26.1512 79.6774 26.1559V23.4715L79.0741 23.2489C78.2888 22.9479 77.7164 22.5873 77.3547 22.1685C76.993 21.7496 76.8121 21.232 76.8121 20.6144C76.8121 19.954 77.0691 19.4114 77.5844 18.9854C78.0996 18.5594 78.7957 18.3012 79.6762 18.2108V17.0054H80.6306V18.1894C81.6016 18.2227 82.5226 18.419 83.3936 18.7784L82.8688 20.0921C82.118 19.7958 81.3719 19.6185 80.6306 19.5613V22.1732L81.1756 22.3815C82.0847 22.7313 82.7141 23.099 83.0628 23.4869C83.4126 23.8748 83.5864 24.3484 83.5864 24.9077C83.5899 25.6014 83.3365 26.1726 82.8296 26.6224Z" fill="#26292B"/>
</svg>
