<svg width="183" height="287" viewBox="0 0 183 287" fill="none" xmlns="http://www.w3.org/2000/svg">
<path d="M-70.1042 269.072C-28.7467 167.456 41.6088 87.583 123.415 16.5427C114.913 27.6391 106.411 38.7356 97.9085 49.832C71.4163 84.5736 44.5833 118.947 19.4831 154.454C-5.40105 189.898 -29.9445 225.711 -59.1915 258.213C-62.5507 261.986 -65.7852 266.19 -70.1042 269.072Z" fill="#99BF18" fill-opacity="0.4"/>
<path d="M-18.2008 229.689C14.1312 189.36 48.9663 151.147 89.4673 118.628C90.8059 117.532 92.2075 116.654 93.5461 115.557C93.8905 115.931 94.1718 116.086 94.5163 116.46C83.8861 130.412 73.3191 144.583 62.3445 158.161C34.4886 192.702 10.0718 229.325 -16.3774 264.642C-18.2736 267.082 -19.9515 269.459 -21.6294 271.836L-36.9732 254.746C-30.8823 246.363 -24.5731 237.917 -18.2008 229.689Z" fill="#99BF18" fill-opacity="0.4"/>
<path d="M36.1769 27.9363C39.1386 30.1311 37.7331 31.7106 36.3631 34.2185C17.9987 66.5123 -0.490894 98.3729 -18.3005 130.976C-32.6091 157.169 -43.589 185.217 -56.2333 212.338C-58.2392 216.672 -60.0928 220.728 -62.1613 224.846L-76.2882 208.981C-76.1359 208.702 -75.9837 208.424 -75.8315 208.145C-72.393 201.519 -69.7868 194.43 -66.6257 187.65C-49.7278 151.087 -29.5638 116.161 -7.6103 82.5953C2.9098 66.6485 13.4925 50.9182 24.8448 35.435C26.4921 33.0816 28.4795 31.0993 30.1894 28.9624C31.6846 26.8877 33.4926 25.8959 36.1769 27.9363Z" fill="#99BF18" fill-opacity="0.4"/>
</svg>
