<svg width="188" height="287" viewBox="0 0 188 287" fill="none" xmlns="http://www.w3.org/2000/svg">
<path d="M252.663 269.072C211.305 167.456 140.95 87.583 59.1432 16.5427C67.6455 27.6391 76.1478 38.7356 84.6501 49.832C111.142 84.5736 137.975 118.947 163.076 154.454C187.96 189.898 212.503 225.711 241.75 258.213C245.109 261.986 248.344 266.19 252.663 269.072Z" fill="#99BF18" fill-opacity="0.4"/>
<path d="M200.759 229.689C168.427 189.36 133.592 151.147 93.0913 118.629C91.7527 117.532 90.3511 116.654 89.0125 115.558C88.6681 115.931 88.3868 116.086 88.0423 116.46C98.6725 130.412 109.24 144.583 120.214 158.161C148.07 192.703 172.487 229.325 198.936 264.642C200.832 267.082 202.51 269.459 204.188 271.836L219.532 254.746C213.441 246.363 207.132 237.917 200.759 229.689Z" fill="#99BF18" fill-opacity="0.4"/>
<path d="M146.382 27.9363C143.42 30.1312 144.826 31.7107 146.195 34.2186C164.56 66.5124 183.049 98.373 200.859 130.976C215.168 157.169 226.148 185.217 238.792 212.338C240.798 216.672 242.651 220.728 244.72 224.846L258.847 208.981C258.695 208.703 258.542 208.424 258.39 208.145C254.952 201.52 252.345 194.43 249.184 187.65C232.286 151.087 212.122 116.161 190.169 82.5954C179.649 66.6485 169.066 50.9183 157.714 35.435C156.066 33.0816 154.079 31.0993 152.369 28.9625C150.874 26.8878 149.066 25.8959 146.382 27.9363Z" fill="#99BF18" fill-opacity="0.4"/>
</svg>
