<svg width="204" height="50" viewBox="0 0 204 50" fill="none" xmlns="http://www.w3.org/2000/svg">
<path d="M30.4997 26.9216C27.7667 29.7987 25.0337 32.5731 22.3007 35.4502C18.5166 39.3549 14.1017 42.643 10.1073 46.3422C8.95107 47.3697 7.7948 47.4725 6.53341 46.5477C5.16691 45.5201 6.32318 44.4926 6.95387 43.6706C11.7892 37.1971 16.204 30.4153 19.2524 22.7087C18.0961 24.25 16.9398 25.8941 15.7836 27.4354C14.5222 29.0795 13.3659 30.8263 12.1045 32.4704C9.58176 35.7585 6.95387 38.9439 4.53622 42.232C3.48507 43.6706 2.74926 43.1568 2.01345 42.0265C0.541838 39.8687 0.121377 37.4026 0.121377 34.9365C0.0162614 27.7437 -0.0888539 20.5509 0.121377 13.3581C0.331607 5.03496 5.58737 0 14.1017 0C21.2496 0 28.5025 0 35.6504 0C43.7442 0 49 5.13771 49 13.0498C49 20.6536 49 28.2574 49 35.8612C49 42.8485 43.8494 47.7807 36.8066 47.8835C29.9741 47.8835 23.1416 47.8835 16.3091 47.8835C15.3631 47.8835 13.8915 48.3973 13.471 47.267C13.1557 46.3422 14.6273 45.7257 15.3631 45.0064C21.0393 40.0742 25.9797 34.5254 30.6048 28.5657C30.8151 28.2574 31.0253 27.8464 31.2355 27.5381C31.0253 27.3326 30.8151 27.1271 30.4997 26.9216ZM36.7015 8.52861C32.7071 13.8718 28.7127 19.4206 24.6132 24.661C20.4086 29.9015 16.0989 34.9365 12.7352 40.7934C23.8774 32.1621 30.9202 20.7564 36.7015 8.52861Z" fill="#99BF18"/>
<path d="M83.26 21.84L80.24 33H76.46L74.7 25.76L72.88 33H69.12L66.08 21.84H69.5L71.08 29.82L72.96 21.84H76.58L78.48 29.78L80.04 21.84H83.26ZM95.0842 27.24C95.0842 27.56 95.0642 27.8933 95.0242 28.24H87.2842C87.3376 28.9333 87.5576 29.4667 87.9442 29.84C88.3442 30.2 88.8309 30.38 89.4042 30.38C90.2576 30.38 90.8509 30.02 91.1842 29.3H94.8242C94.6376 30.0333 94.2976 30.6933 93.8042 31.28C93.3242 31.8667 92.7176 32.3267 91.9842 32.66C91.2509 32.9933 90.4309 33.16 89.5242 33.16C88.4309 33.16 87.4576 32.9267 86.6042 32.46C85.7509 31.9933 85.0842 31.3267 84.6042 30.46C84.1242 29.5933 83.8842 28.58 83.8842 27.42C83.8842 26.26 84.1176 25.2467 84.5842 24.38C85.0642 23.5133 85.7309 22.8467 86.5842 22.38C87.4376 21.9133 88.4176 21.68 89.5242 21.68C90.6042 21.68 91.5642 21.9067 92.4042 22.36C93.2442 22.8133 93.8976 23.46 94.3642 24.3C94.8442 25.14 95.0842 26.12 95.0842 27.24ZM91.5842 26.34C91.5842 25.7533 91.3842 25.2867 90.9842 24.94C90.5842 24.5933 90.0842 24.42 89.4842 24.42C88.9109 24.42 88.4242 24.5867 88.0242 24.92C87.6376 25.2533 87.3976 25.7267 87.3042 26.34H91.5842ZM96.2084 27.4C96.2084 26.2533 96.4218 25.2467 96.8484 24.38C97.2884 23.5133 97.8818 22.8467 98.6284 22.38C99.3751 21.9133 100.208 21.68 101.128 21.68C101.915 21.68 102.602 21.84 103.188 22.16C103.788 22.48 104.248 22.9 104.568 23.42V21.84H107.988V33H104.568V31.42C104.235 31.94 103.768 32.36 103.168 32.68C102.582 33 101.895 33.16 101.108 33.16C100.202 33.16 99.3751 32.9267 98.6284 32.46C97.8818 31.98 97.2884 31.3067 96.8484 30.44C96.4218 29.56 96.2084 28.5467 96.2084 27.4ZM104.568 27.42C104.568 26.5667 104.328 25.8933 103.848 25.4C103.382 24.9067 102.808 24.66 102.128 24.66C101.448 24.66 100.868 24.9067 100.388 25.4C99.9218 25.88 99.6884 26.5467 99.6884 27.4C99.6884 28.2533 99.9218 28.9333 100.388 29.44C100.868 29.9333 101.448 30.18 102.128 30.18C102.808 30.18 103.382 29.9333 103.848 29.44C104.328 28.9467 104.568 28.2733 104.568 27.42ZM113.883 18.2V33H110.463V18.2H113.883ZM122.581 30.1V33H120.841C119.601 33 118.634 32.7 117.941 32.1C117.248 31.4867 116.901 30.4933 116.901 29.12V24.68H115.541V21.84H116.901V19.12H120.321V21.84H122.561V24.68H120.321V29.16C120.321 29.4933 120.401 29.7333 120.561 29.88C120.721 30.0267 120.988 30.1 121.361 30.1H122.581ZM131.346 21.72C132.626 21.72 133.653 22.1467 134.426 23C135.199 23.84 135.586 25 135.586 26.48V33H132.186V26.94C132.186 26.1933 131.993 25.6133 131.606 25.2C131.219 24.7867 130.699 24.58 130.046 24.58C129.393 24.58 128.873 24.7867 128.486 25.2C128.099 25.6133 127.906 26.1933 127.906 26.94V33H124.486V18.2H127.906V23.34C128.253 22.8467 128.726 22.4533 129.326 22.16C129.926 21.8667 130.599 21.72 131.346 21.72ZM141.383 23.42C141.703 22.9 142.163 22.48 142.763 22.16C143.363 21.84 144.049 21.68 144.823 21.68C145.743 21.68 146.576 21.9133 147.323 22.38C148.069 22.8467 148.656 23.5133 149.083 24.38C149.523 25.2467 149.743 26.2533 149.743 27.4C149.743 28.5467 149.523 29.56 149.083 30.44C148.656 31.3067 148.069 31.98 147.323 32.46C146.576 32.9267 145.743 33.16 144.823 33.16C144.036 33.16 143.349 33.0067 142.763 32.7C142.176 32.38 141.716 31.96 141.383 31.44V33H137.963V18.2H141.383V23.42ZM146.263 27.4C146.263 26.5467 146.023 25.88 145.543 25.4C145.076 24.9067 144.496 24.66 143.803 24.66C143.123 24.66 142.543 24.9067 142.063 25.4C141.596 25.8933 141.363 26.5667 141.363 27.42C141.363 28.2733 141.596 28.9467 142.063 29.44C142.543 29.9333 143.123 30.18 143.803 30.18C144.483 30.18 145.063 29.9333 145.543 29.44C146.023 28.9333 146.263 28.2533 146.263 27.4ZM162.557 21.84V33H159.137V31.48C158.79 31.9733 158.317 32.3733 157.717 32.68C157.13 32.9733 156.477 33.12 155.757 33.12C154.904 33.12 154.15 32.9333 153.497 32.56C152.844 32.1733 152.337 31.62 151.977 30.9C151.617 30.18 151.437 29.3333 151.437 28.36V21.84H154.837V27.9C154.837 28.6467 155.03 29.2267 155.417 29.64C155.804 30.0533 156.324 30.26 156.977 30.26C157.644 30.26 158.17 30.0533 158.557 29.64C158.944 29.2267 159.137 28.6467 159.137 27.9V21.84H162.557ZM164.333 27.4C164.333 26.2533 164.547 25.2467 164.973 24.38C165.413 23.5133 166.007 22.8467 166.753 22.38C167.5 21.9133 168.333 21.68 169.253 21.68C169.987 21.68 170.653 21.8333 171.253 22.14C171.867 22.4467 172.347 22.86 172.693 23.38V18.2H176.113V33H172.693V31.4C172.373 31.9333 171.913 32.36 171.313 32.68C170.727 33 170.04 33.16 169.253 33.16C168.333 33.16 167.5 32.9267 166.753 32.46C166.007 31.98 165.413 31.3067 164.973 30.44C164.547 29.56 164.333 28.5467 164.333 27.4ZM172.693 27.42C172.693 26.5667 172.453 25.8933 171.973 25.4C171.507 24.9067 170.933 24.66 170.253 24.66C169.573 24.66 168.993 24.9067 168.513 25.4C168.047 25.88 167.813 26.5467 167.813 27.4C167.813 28.2533 168.047 28.9333 168.513 29.44C168.993 29.9333 169.573 30.18 170.253 30.18C170.933 30.18 171.507 29.9333 171.973 29.44C172.453 28.9467 172.693 28.2733 172.693 27.42ZM177.908 27.4C177.908 26.2533 178.121 25.2467 178.548 24.38C178.988 23.5133 179.581 22.8467 180.328 22.38C181.074 21.9133 181.908 21.68 182.828 21.68C183.561 21.68 184.228 21.8333 184.828 22.14C185.441 22.4467 185.921 22.86 186.268 23.38V18.2H189.688V33H186.268V31.4C185.948 31.9333 185.488 32.36 184.888 32.68C184.301 33 183.614 33.16 182.828 33.16C181.908 33.16 181.074 32.9267 180.328 32.46C179.581 31.98 178.988 31.3067 178.548 30.44C178.121 29.56 177.908 28.5467 177.908 27.4ZM186.268 27.42C186.268 26.5667 186.028 25.8933 185.548 25.4C185.081 24.9067 184.508 24.66 183.828 24.66C183.148 24.66 182.568 24.9067 182.088 25.4C181.621 25.88 181.388 26.5467 181.388 27.4C181.388 28.2533 181.621 28.9333 182.088 29.44C182.568 29.9333 183.148 30.18 183.828 30.18C184.508 30.18 185.081 29.9333 185.548 29.44C186.028 28.9467 186.268 28.2733 186.268 27.42ZM203.562 21.84L196.562 38.3H192.882L195.442 32.62L190.902 21.84H194.722L197.302 28.82L199.862 21.84H203.562Z" fill="#263238"/>
</svg>
